<?xml version="1.0" encoding="UTF-8" standalone="no"?>
<!-- Created with Inkscape (http://www.inkscape.org/) -->

<svg
   width="107.71654pt"
   height="107.71654pt"
   viewBox="0 0 38.000001 38.000001"
   version="1.1"
   id="svg1"
   inkscape:version="1.2.2 (b0a8486541, 2022-12-01)"
   sodipodi:docname="Iconic Anton.svg"
   inkscape:export-filename="Anton ZzZz.svg"
   inkscape:export-xdpi="96"
   inkscape:export-ydpi="96"
   xmlns:inkscape="http://www.inkscape.org/namespaces/inkscape"
   xmlns:sodipodi="http://sodipodi.sourceforge.net/DTD/sodipodi-0.dtd"
   xmlns="http://www.w3.org/2000/svg"
   xmlns:svg="http://www.w3.org/2000/svg">
  <sodipodi:namedview
     id="namedview1"
     pagecolor="#f7f6e7"
     bordercolor="#000000"
     borderopacity="0.25"
     inkscape:showpageshadow="2"
     inkscape:pageopacity="0.0"
     inkscape:pagecheckerboard="0"
     inkscape:deskcolor="#d1d1d1"
     inkscape:document-units="mm"
     inkscape:zoom="1.4142136"
     inkscape:cx="156.62415"
     inkscape:cy="222.73864"
     inkscape:window-width="1920"
     inkscape:window-height="1011"
     inkscape:window-x="0"
     inkscape:window-y="0"
     inkscape:window-maximized="1"
     inkscape:current-layer="layer1"
     inkscape:export-bgcolor="#f7f6e7ff"
     showgrid="false" />
  <defs
     id="defs1" />
  <g
     inkscape:label="Layer 1"
     inkscape:groupmode="layer"
     id="layer1"
     transform="translate(-10.576749,-6.7235426)">
    <rect
       style="fill:#fff4ec;fill-opacity:1;stroke-width:0.239922"
       id="rect1-5"
       width="38"
       height="38"
       x="10.576749"
       y="6.7235427"
       inkscape:label="rect1" />
    <path
       style="fill:none;stroke:#abcc7f;stroke-width:0.622862;stroke-linecap:round;stroke-linejoin:round;stroke-miterlimit:10;stroke-opacity:1"
       d="m 19.631798,14.253086 c -0.01407,-0.04838 -0.03744,-0.09051 -0.07022,-0.126408 -0.02029,-0.02497 -0.04213,-0.0437 -0.06555,-0.05775 -0.02186,-0.01249 -0.06399,-0.02653 -0.123286,-0.03901 -0.06086,-0.01403 -0.123289,-0.02184 -0.18727,-0.02341 -0.06398,-0.0015 -0.118607,0.0046 -0.165422,0.01717 -0.04525,0.01249 -0.106124,0.04838 -0.18103,0.107676 -0.07491,0.0593 -0.170104,0.149817 -0.285586,0.274663 -0.115487,0.123287 -0.213803,0.243452 -0.294951,0.360497 -0.07959,0.115484 -0.148259,0.226285 -0.206,0.330845 -0.05618,0.104561 -0.102998,0.193513 -0.138894,0.265301 -0.03588,0.07179 -0.07646,0.170104 -0.120165,0.29339 -0.04214,0.124847 -0.09052,0.288709 -0.142014,0.493147 -0.05149,0.202876 -0.08896,0.365178 -0.110801,0.485343 -0.02186,0.121727 -0.04058,0.245012 -0.05618,0.371421 -0.01407,0.126408 -0.02497,0.248133 -0.02965,0.366738 -0.0046,0.117044 -0.0062,0.215363 -0.0078,0.293391 0,0.07803 0.0016,0.146697 0.0032,0.202878 0.0016,0.05618 0.0046,0.110801 0.0094,0.165421 0.0046,0.05462 0.01562,0.129529 0.02965,0.223165 0.01407,0.09363 0.0312,0.187273 0.05151,0.280907 0.01874,0.09208 0.04214,0.196635 0.07022,0.312117 0.02653,0.115485 0.05151,0.204439 0.07335,0.266861 0.02029,0.06398 0.04838,0.127968 0.08272,0.191953 0.03276,0.06555 0.06866,0.120168 0.102998,0.166984 0.03431,0.04525 0.07335,0.09052 0.115483,0.135772 0.04058,0.0437 0.09363,0.09207 0.15606,0.142013 0.06399,0.05151 0.118603,0.09051 0.16698,0.117044 0.04838,0.02809 0.109249,0.05618 0.182593,0.08739 0.07335,0.02965 0.134211,0.04838 0.181025,0.05775 0.04526,0.0094 0.0952,0.01249 0.148259,0.01087 0.05306,-0.0032 0.110801,-0.02497 0.171662,-0.06711 0.06086,-0.04058 0.120165,-0.08583 0.17791,-0.132648 0.05775,-0.04682 0.106113,-0.08896 0.145135,-0.126409 0.03904,-0.03589 0.08272,-0.08115 0.129529,-0.13265 0.04838,-0.05149 0.09363,-0.113923 0.13889,-0.188832 0.0437,-0.07335 0.08583,-0.171664 0.124847,-0.290269 0.04058,-0.120165 0.08115,-0.26062 0.121727,-0.419798 0.04214,-0.15918 0.06711,-0.262181 0.07646,-0.307437 0.0094,-0.04525 0.01874,-0.106124 0.02965,-0.181029 0.0094,-0.07335 0.02186,-0.198196 0.03431,-0.374542 0.01247,-0.176348 0.02341,-0.360497 0.0312,-0.55401 0.0062,-0.193513 0.0125,-0.337087 0.01874,-0.432283 0.0046,-0.09676 0.0078,-0.181029 0.0094,-0.255937 0.0016,-0.07335 0.0016,-0.240332 0.0032,-0.49939 0,-0.259057 -0.0032,-0.416678 -0.0094,-0.471298 -0.0046,-0.05462 -0.01874,-0.132649 -0.04214,-0.235649 -0.02186,-0.102999 -0.04838,-0.21224 -0.07804,-0.330845 -0.0312,-0.117045 -0.05306,-0.204437 -0.0671,-0.257498 -0.01406,-0.05462 -0.0312,-0.104561 -0.0515,-0.149816 -0.02029,-0.04525 -0.04994,-0.09207 -0.08896,-0.138893 -0.03904,-0.04682 -0.07491,-0.08739 -0.109238,-0.120164 -0.03431,-0.03121 -0.07024,-0.06086 -0.109238,-0.08739 -0.05462,-0.03901 -0.193516,-0.05775 -0.416678,-0.05931"
       id="path23094-6" />
    <path
       style="fill:none;stroke:#abcc7f;stroke-width:0.622862;stroke-linecap:round;stroke-linejoin:round;stroke-miterlimit:10;stroke-opacity:1"
       d="m 23.004233,16.108628 c -0.03276,-0.08427 -0.07647,-0.165421 -0.131087,-0.24189 -0.03747,-0.0515 -0.07648,-0.09676 -0.121727,-0.138894 -0.0437,-0.04058 -0.08272,-0.07179 -0.118607,-0.09363 -0.03588,-0.02185 -0.08739,-0.04214 -0.151374,-0.06242 -0.06399,-0.02028 -0.118608,-0.03434 -0.160744,-0.04058 -0.04369,-0.0078 -0.118603,-0.01087 -0.226283,-0.01248 -0.106124,-0.0015 -0.173228,-0.0031 -0.201317,-0.0015 -0.02652,0 -0.06087,0.0078 -0.102999,0.01872 -0.04058,0.01249 -0.07646,0.02497 -0.106124,0.03745 -0.02965,0.01248 -0.06242,0.02965 -0.09832,0.05306 -0.03744,0.02185 -0.07491,0.05151 -0.11704,0.08583 -0.04058,0.0359 -0.07335,0.06555 -0.09676,0.09052 -0.02341,0.02341 -0.05462,0.0593 -0.09207,0.104561 -0.03904,0.04682 -0.07647,0.09832 -0.113924,0.156058 -0.03588,0.05618 -0.06866,0.117045 -0.09832,0.18415 -0.02965,0.06555 -0.06087,0.135772 -0.09207,0.20912 -0.0312,0.07491 -0.05931,0.151376 -0.08583,0.230965 -0.02652,0.07803 -0.04525,0.142016 -0.05774,0.188833 -0.01407,0.04838 -0.02497,0.09987 -0.03276,0.154498 -0.0094,0.05462 -0.01562,0.112363 -0.02029,0.171666 -0.0046,0.0593 -0.0078,0.168543 -0.0094,0.329284 -0.0016,0.15918 -0.0016,0.271544 0.0016,0.335527 0.0016,0.06398 0.0046,0.113922 0.0094,0.152938 0.0046,0.03745 0.0125,0.08583 0.02341,0.142013 0.01087,0.05774 0.02029,0.104561 0.0312,0.140453 0.01087,0.0359 0.02497,0.07491 0.04214,0.118605 0.01874,0.0437 0.04214,0.09363 0.07335,0.151377 0.0312,0.05618 0.06087,0.104561 0.09052,0.143575 0.02809,0.03745 0.05306,0.06711 0.07179,0.08583 0.02029,0.02028 0.04994,0.04525 0.09208,0.07646 0.04058,0.03121 0.07335,0.05462 0.09676,0.06866 0.02341,0.01249 0.05462,0.0281 0.09208,0.04525 0.03743,0.01717 0.07335,0.03121 0.106112,0.0437 0.03276,0.01248 0.06399,0.02184 0.09363,0.02808 0.02809,0.0062 0.07179,0.01087 0.129529,0.01405 0.05618,0.0031 0.09988,0.0015 0.131088,-0.0031 0.02965,-0.0031 0.06086,-0.01249 0.09363,-0.02497 0.0312,-0.01403 0.07646,-0.03745 0.134211,-0.07335 0.0593,-0.03589 0.120165,-0.07803 0.185709,-0.126408 0.06555,-0.04682 0.113924,-0.08272 0.142014,-0.106113 0.02965,-0.02184 0.06555,-0.05618 0.109238,-0.09988 0.04525,-0.0437 0.09676,-0.09363 0.157619,-0.149816 0.06086,-0.05462 0.115482,-0.112364 0.166984,-0.174785 0.04994,-0.06086 0.0952,-0.110801 0.137331,-0.149817 0.04214,-0.03901 0.08115,-0.06555 0.118607,-0.07959 0.03743,-0.01403 0.08427,-0.02028 0.140452,-0.02184 0.05775,0 0.104561,0.0015 0.140452,0.0094 0.03743,0.0062 0.07803,0.01717 0.120165,0.03277 0.04214,0.01561 0.08271,0.03121 0.118602,0.04838 0.03747,0.0156 0.06711,0.02965 0.08896,0.04369 0.02341,0.01249 0.06242,0.03901 0.120165,0.07803 0.05618,0.03901 0.110801,0.08115 0.16386,0.124848 0.05462,0.04369 0.0952,0.07959 0.121726,0.110801 0.02653,0.02965 0.05306,0.06711 0.07803,0.110801 0.02652,0.0437 0.04994,0.106124 0.07179,0.18727 0.02341,0.08115 0.03904,0.151376 0.04838,0.21068 0.0094,0.0593 0.01562,0.107687 0.01874,0.145134 0.0032,0.0359 0.0046,0.101435 0.0046,0.195076 0,0.09363 -0.0016,0.157617 -0.0078,0.19039 -0.0046,0.03277 -0.01562,0.07022 -0.02965,0.110801 -0.01406,0.04214 -0.03276,0.08115 -0.05307,0.121725 -0.02186,0.03901 -0.04838,0.08427 -0.08115,0.132648 -0.03276,0.04994 -0.06711,0.09676 -0.101436,0.138893 -0.03431,0.04214 -0.06398,0.07335 -0.08739,0.0952 -0.02341,0.02185 -0.05149,0.04525 -0.08583,0.07179 -0.03276,0.02652 -0.07335,0.05462 -0.120168,0.08427 -0.04525,0.02965 -0.08583,0.05462 -0.118604,0.07335 -0.03431,0.01872 -0.106124,0.04994 -0.216922,0.09676 -0.110801,0.04682 -0.241892,0.106124 -0.391708,0.176346 -0.151379,0.07179 -0.257497,0.120165 -0.315238,0.146696 -0.05931,0.02809 -0.107676,0.04838 -0.146697,0.06398 -0.03899,0.01717 -0.09207,0.03589 -0.159181,0.05931 -0.06711,0.02184 -0.131088,0.04214 -0.193511,0.05931 -0.06242,0.01561 -0.112364,0.02808 -0.149817,0.03589 -0.03743,0.0078 -0.08428,0.01405 -0.142014,0.01872 -0.05775,0.0046 -0.12953,0.0062 -0.21224,0.0062 -0.08272,0 -0.173228,-0.0094 -0.271544,-0.02653 -0.09676,-0.01561 -0.174786,-0.03121 -0.230969,-0.04369 -0.05774,-0.01403 -0.106112,-0.02652 -0.148254,-0.04058 -0.04058,-0.01248 -0.0952,-0.03589 -0.162301,-0.06866 -0.06711,-0.03434 -0.134212,-0.06555 -0.201319,-0.09676 -0.06555,-0.03121 -0.143571,-0.07335 -0.232527,-0.126408 -0.09051,-0.05462 -0.159176,-0.09676 -0.207557,-0.127969 -0.04682,-0.03121 -0.09052,-0.06086 -0.12953,-0.09051 -0.03904,-0.02965 -0.07803,-0.06242 -0.117044,-0.09832 -0.03744,-0.03589 -0.06555,-0.06555 -0.08583,-0.08583 -0.01874,-0.02184 -0.04058,-0.05307 -0.06399,-0.09676 -0.02497,-0.04214 -0.05618,-0.104562 -0.0952,-0.18571 -0.05618,-0.120165 -0.110801,-0.266861 -0.162302,-0.440086"
       id="path23096-7" />
    <path
       style="fill:none;stroke:#abcc7f;stroke-width:0.622862;stroke-linecap:round;stroke-linejoin:round;stroke-miterlimit:10;stroke-opacity:1"
       d="m 22.77795,16.049327 c 0.03588,0.0437 0.07803,0.08272 0.126406,0.115484 0.03276,0.02341 0.07022,0.04994 0.112364,0.0827 0.04058,0.03277 0.08272,0.05931 0.12329,0.08115 0.04056,0.02185 0.07646,0.03745 0.109238,0.04838 0.0312,0.0094 0.06242,0.01717 0.09363,0.02341 0.0312,0.0046 0.0593,0.0094 0.08583,0.01087 0.02652,0.0015 0.06242,-0.0015 0.107675,-0.0094 0.04525,-0.0062 0.08896,-0.02028 0.131092,-0.04214 0.04214,-0.02028 0.07491,-0.04058 0.09987,-0.05931 0.02497,-0.01872 0.05306,-0.04838 0.08739,-0.08739 0.03431,-0.03901 0.06242,-0.07491 0.08272,-0.106124 0.02186,-0.03277 0.04682,-0.07491 0.07491,-0.129528 0.02965,-0.05462 0.05462,-0.107676 0.07646,-0.159181 0.02186,-0.05149 0.04838,-0.121726 0.08115,-0.210678 0.03276,-0.08739 0.05307,-0.146697 0.06086,-0.177909 0.0078,-0.03121 0.01562,-0.07179 0.02186,-0.124847 0.0046,-0.05306 0.0078,-0.123285 0.0062,-0.212241 0,-0.08896 -0.0062,-0.163862 -0.01874,-0.221602 -0.01087,-0.05931 -0.02341,-0.106124 -0.03588,-0.138893 -0.0125,-0.03434 -0.02809,-0.06866 -0.04682,-0.102999 -0.02029,-0.03434 -0.05618,-0.08428 -0.107675,-0.149815 -0.05306,-0.06399 -0.107676,-0.13265 -0.166984,-0.205998 -0.05774,-0.07335 -0.104562,-0.13109 -0.138895,-0.173225 -0.03431,-0.04214 -0.07335,-0.08739 -0.117044,-0.137333 -0.04525,-0.04838 -0.08427,-0.08739 -0.118603,-0.117044 -0.03431,-0.03121 -0.08272,-0.06086 -0.143572,-0.09363 -0.06242,-0.03121 -0.123289,-0.05775 -0.182589,-0.07959 -0.05931,-0.02185 -0.131091,-0.04214 -0.216926,-0.06399 -0.08739,-0.02028 -0.154495,-0.03589 -0.204438,-0.04369 -0.04993,-0.0094 -0.107676,-0.0156 -0.173224,-0.02184 -0.06711,-0.0046 -0.201317,-0.0078 -0.40263,-0.0094 -0.20288,-0.0015 -0.380787,0.0094 -0.533723,0.03434 -0.154499,0.02497 -0.268424,0.04682 -0.343332,0.06711 -0.0749,0.02028 -0.142013,0.04525 -0.202876,0.07335 -0.05931,0.0281 -0.151378,0.08115 -0.276221,0.160741 -0.124852,0.07803 -0.229412,0.149817 -0.315243,0.215361 -0.08583,0.06398 -0.168541,0.131092 -0.249694,0.199757 -0.08115,0.07022 -0.142014,0.123285 -0.18103,0.162301 -0.03899,0.03901 -0.07022,0.07179 -0.09208,0.09676 -0.0312,0.0359 -0.0671,0.09987 -0.109239,0.191951"
       id="path23098-5" />
    <path
       style="fill:none;stroke:#abcc7f;stroke-width:0.622862;stroke-linecap:round;stroke-linejoin:round;stroke-miterlimit:10;stroke-opacity:1"
       d="m 22.946492,16.462881 c 0,-0.03434 0,-0.05306 0,-0.05774 0,-0.0032 -0.0016,0 -0.0046,0.0062 -0.0046,0.0062 -0.01562,0.03121 -0.03744,0.07335 -0.02029,0.04214 -0.03431,0.07646 -0.0437,0.101435 -0.0078,0.02652 -0.01558,0.06242 -0.02341,0.107687 -0.0078,0.04525 -0.02186,0.138893 -0.04058,0.284029 -0.02029,0.145134 -0.0312,0.240331 -0.03592,0.285586 -0.0032,0.04525 -0.0062,0.09832 -0.0062,0.163865 0,0.06398 0.0016,0.138889 0.0062,0.223162 0.0046,0.08583 0.01247,0.162304 0.02186,0.230968 0.01407,0.102998 0.04058,0.190393 0.07803,0.263741"
       id="path23100-3" />
    <path
       style="fill:none;stroke:#abcc7f;stroke-width:0.622862;stroke-linecap:round;stroke-linejoin:round;stroke-miterlimit:10;stroke-opacity:1"
       d="m 24.375994,19.991378 c -0.01087,0.03434 -0.01087,0.05931 0.0032,0.07646 0.0078,0.01248 0.03904,0.03277 0.09052,0.06242 0.05307,0.02965 0.09832,0.05775 0.137333,0.08427 0.03904,0.02652 0.09207,0.06086 0.160743,0.101436 0.06866,0.04214 0.13577,0.07491 0.201317,0.102998 0.06555,0.02652 0.162298,0.06242 0.290268,0.110801 0.127969,0.04682 0.243451,0.09363 0.346448,0.138893 0.104562,0.04525 0.191953,0.07803 0.263742,0.09832 0.07179,0.02185 0.13577,0.03589 0.193514,0.04525 0.05618,0.0094 0.115483,0.01717 0.174787,0.02341 0.05931,0.0046 0.143571,0.0078 0.24969,0.0094 0.107686,0 0.195074,-0.0062 0.263741,-0.02028 0.06711,-0.01403 0.148259,-0.0359 0.24033,-0.06398 0.09363,-0.02653 0.201317,-0.06555 0.324606,-0.115485 0.123285,-0.04994 0.218481,-0.08895 0.284024,-0.118604 0.06555,-0.03121 0.131091,-0.06398 0.195074,-0.102999 0.06555,-0.03745 0.117044,-0.07022 0.154502,-0.101435 0.03904,-0.03121 0.07803,-0.06398 0.115482,-0.09832 0.03743,-0.0359 0.07803,-0.07491 0.118604,-0.118605 0.04058,-0.04214 0.08272,-0.08896 0.123289,-0.138892 0.04213,-0.04838 0.08115,-0.101436 0.117041,-0.159181 0.03747,-0.05774 0.07022,-0.112363 0.09987,-0.168544 0.02965,-0.05462 0.05618,-0.109238 0.08115,-0.162302 0.02497,-0.05306 0.04838,-0.118604 0.07335,-0.199755 0.02341,-0.07959 0.04213,-0.160741 0.05618,-0.24189 0.01562,-0.07959 0.03276,-0.196637 0.05618,-0.351134 0.02186,-0.152938 0.04058,-0.298074 0.05618,-0.433845 0.01718,-0.13421 0.0312,-0.277786 0.0437,-0.429163 0.01247,-0.151376 0.02186,-0.257496 0.02965,-0.31836 0.0062,-0.06242 0.01562,-0.185711 0.02809,-0.37298 0.01247,-0.187272 0.02029,-0.351133 0.02186,-0.488465 0.0016,-0.137333 -0.0046,-0.280907 -0.01874,-0.429163 -0.01406,-0.148256 -0.02809,-0.276225 -0.04214,-0.383906 -0.01407,-0.107675 -0.02965,-0.201316 -0.04525,-0.279345 -0.01718,-0.07803 -0.03588,-0.156059 -0.05618,-0.230968 -0.02186,-0.07646 -0.0437,-0.143574 -0.06555,-0.204437 -0.02341,-0.06086 -0.04525,-0.113922 -0.06398,-0.160741 -0.01874,-0.04525 -0.04058,-0.0952 -0.06711,-0.146695 -0.02652,-0.0515 -0.05931,-0.104561 -0.09832,-0.15918 -0.03899,-0.05462 -0.09051,-0.112364 -0.159178,-0.171664 -0.06711,-0.06086 -0.118606,-0.109239 -0.157619,-0.146696 -0.03747,-0.03745 -0.07804,-0.07491 -0.123288,-0.112364 -0.0437,-0.03745 -0.107676,-0.09052 -0.193516,-0.157621 -0.08427,-0.06711 -0.146692,-0.115484 -0.185708,-0.142013 -0.04058,-0.02653 -0.09208,-0.05462 -0.157619,-0.08272 -0.06711,-0.02809 -0.156058,-0.05618 -0.266861,-0.08428 -0.112364,-0.02809 -0.237209,-0.05462 -0.374542,-0.08115 -0.137331,-0.02497 -0.232527,-0.04058 -0.285585,-0.04838 -0.05307,-0.0062 -0.160744,-0.01717 -0.323046,-0.03277 -0.160743,-0.01561 -0.296512,-0.02965 -0.404192,-0.04058 -0.109239,-0.01248 -0.199756,-0.01872 -0.271543,-0.01872 -0.07179,0 -0.140453,0 -0.204439,0.0031 -0.06398,0.0015 -0.123284,0.0062 -0.179468,0.01248 -0.05618,0.0062 -0.102998,0.01403 -0.145134,0.02341 -0.04058,0.01087 -0.08583,0.02497 -0.137332,0.04525 -0.04993,0.01872 -0.09208,0.03745 -0.123285,0.05462 -0.02965,0.01717 -0.06398,0.03901 -0.102998,0.06399 -0.03747,0.02653 -0.07959,0.05931 -0.12641,0.09832 -0.04838,0.03745 -0.107676,0.09208 -0.177906,0.162303 -0.109238,0.106124 -0.20912,0.202875 -0.301196,0.29027"
       id="path23102-5" />
    <path
       style="fill:none;stroke:#abcc7f;stroke-width:0.622862;stroke-linecap:round;stroke-linejoin:round;stroke-miterlimit:10;stroke-opacity:1"
       d="m 25.847632,15.66074 c -0.04838,0.01087 -0.0952,0.03121 -0.140456,0.0593 -0.04525,0.02808 -0.07803,0.05306 -0.09987,0.07491 -0.02186,0.02184 -0.04682,0.05306 -0.07648,0.09208 -0.02965,0.04058 -0.06555,0.09363 -0.104561,0.160741 -0.03904,0.06555 -0.0749,0.127968 -0.107675,0.188831 -0.03276,0.05931 -0.06242,0.117044 -0.08739,0.171664 -0.02652,0.05618 -0.04525,0.102999 -0.05931,0.143576 -0.01402,0.04058 -0.02497,0.08896 -0.03588,0.145133 -0.0094,0.05618 -0.01718,0.123289 -0.02341,0.201318 -0.0078,0.07803 -0.0125,0.143573 -0.01402,0.193513 -0.0032,0.04994 -0.0032,0.102998 -0.0046,0.15762 0,0.05462 0.0062,0.106124 0.01718,0.154497 0.01087,0.04994 0.03743,0.106124 0.07803,0.171665 0.04058,0.06555 0.08583,0.131091 0.134212,0.195076 0.04682,0.06555 0.09052,0.121725 0.12953,0.170102 0.03899,0.04838 0.08739,0.09988 0.145129,0.152939 0.05618,0.05306 0.107687,0.09519 0.151379,0.126409 0.04527,0.03277 0.08896,0.0593 0.134211,0.07959 0.0437,0.02184 0.08115,0.03745 0.115483,0.04525 0.03431,0.0094 0.07179,0.01561 0.112364,0.01717 0.04058,0.0031 0.08739,0.0031 0.138894,0 0.05306,-0.0032 0.101436,-0.01248 0.145134,-0.02653 0.04214,-0.01248 0.08115,-0.02965 0.113925,-0.04994 0.0312,-0.02185 0.06555,-0.0515 0.09988,-0.08896 0.03431,-0.03901 0.06711,-0.08115 0.0952,-0.127968 0.02965,-0.04525 0.05775,-0.101436 0.08739,-0.163862 0.02809,-0.06399 0.05306,-0.123285 0.07179,-0.177908 0.02029,-0.05618 0.03904,-0.113921 0.05774,-0.173225 0.01718,-0.06086 0.02965,-0.112364 0.03744,-0.157617 0.0062,-0.04369 0.01247,-0.102999 0.01562,-0.17791 0.0032,-0.07335 0.0046,-0.151376 0.0062,-0.230967 0,-0.07959 -0.0046,-0.154498 -0.01406,-0.227846 -0.0094,-0.07179 -0.02497,-0.143573 -0.04525,-0.212241 -0.02186,-0.07022 -0.04058,-0.132649 -0.05774,-0.19039 -0.01718,-0.05618 -0.03588,-0.113924 -0.05462,-0.170105 -0.01873,-0.05618 -0.03588,-0.09832 -0.04994,-0.127968 -0.01406,-0.02965 -0.03431,-0.05931 -0.05931,-0.09052 -0.02341,-0.03121 -0.04994,-0.05774 -0.07959,-0.07959 -0.02809,-0.02341 -0.06711,-0.04525 -0.117045,-0.06555 -0.04994,-0.02028 -0.09987,-0.0359 -0.152936,-0.04525 -0.05149,-0.0094 -0.112364,-0.01405 -0.181027,-0.01405 -0.101436,0.0015 -0.234089,0.03901 -0.397952,0.113924"
       id="path23104-6" />
    <path
       style="fill:none;stroke:#abcc7f;stroke-width:0.622862;stroke-linecap:round;stroke-linejoin:round;stroke-miterlimit:10;stroke-opacity:1"
       d="m 28.54433,14.533993 c -0.0094,-0.03745 -0.0094,-0.07491 0.0032,-0.112364 0.0078,-0.02497 0.02809,-0.06398 0.06399,-0.117045 0.03431,-0.05306 0.07022,-0.101435 0.106124,-0.145136 0.03588,-0.04369 0.07022,-0.08272 0.104549,-0.113921 0.03431,-0.03277 0.07179,-0.05774 0.110802,-0.07803 0.03899,-0.01872 0.09987,-0.04525 0.18103,-0.07646 0.0827,-0.03277 0.170099,-0.06086 0.265298,-0.08428 0.09363,-0.02341 0.193511,-0.0437 0.301192,-0.06086 0.107687,-0.01717 0.205999,-0.02809 0.296513,-0.03121 0.09052,-0.0046 0.163863,-0.0078 0.220046,-0.0062 0.05618,0 0.09987,0.0032 0.129526,0.0078 0.02965,0.0062 0.06555,0.01561 0.109238,0.02965 0.04369,0.01405 0.08739,0.03434 0.131088,0.06086 0.0437,0.02497 0.09208,0.06555 0.145138,0.120167 0.05306,0.05462 0.09363,0.102998 0.126409,0.142013 0.0312,0.03901 0.06555,0.08428 0.102999,0.137333 0.03747,0.05306 0.07022,0.102998 0.09988,0.148256 0.02965,0.04525 0.06086,0.101435 0.09207,0.166982 0.03276,0.06398 0.07804,0.163861 0.132653,0.299634 0.05462,0.134211 0.104561,0.257497 0.146692,0.37298 0.04214,0.113925 0.07804,0.215361 0.107676,0.304315 0.0312,0.08896 0.06243,0.188833 0.0952,0.301193 0.03276,0.112364 0.0671,0.238773 0.101436,0.379225 0.03431,0.140453 0.06086,0.259058 0.08115,0.355814 0.02029,0.0952 0.04369,0.195074 0.06866,0.296513 0.02497,0.102998 0.05149,0.209119 0.07646,0.318361 0.02652,0.107676 0.05775,0.241891 0.09363,0.404192 0.03588,0.160741 0.06555,0.280907 0.08895,0.360496 0.02341,0.08115 0.0437,0.148257 0.06242,0.205998 0.01874,0.05774 0.03744,0.123288 0.05462,0.195074 0.01873,0.07335 0.03588,0.135772 0.0515,0.187271 0.01562,0.05306 0.0312,0.104561 0.04838,0.15606 0.01718,0.05149 0.0437,0.121725 0.08115,0.210679 0.03744,0.08895 0.06555,0.151376 0.08896,0.188831 0.02186,0.03589 0.04682,0.07022 0.07646,0.104562 0.02809,0.03434 0.05306,0.05462 0.07179,0.06086 0.01874,0.0078 0.03744,0.01087 0.05306,0.01087 0.01718,0 0.04525,-0.02652 0.08427,-0.07803 0.04058,-0.04994 0.06555,-0.08739 0.07646,-0.110801 0.01087,-0.02184 0.02186,-0.05618 0.03431,-0.09988 0.01087,-0.04525 0.02186,-0.102998 0.02965,-0.173224 0.0078,-0.07179 0.01406,-0.152938 0.01874,-0.243453 0.0032,-0.09207 0.0046,-0.174786 0.0046,-0.251254 0,-0.07646 0.0046,-0.221604 0.01087,-0.435406 0.0062,-0.2138 0.0094,-0.457251 0.0094,-0.730356 0,-0.273102 0.0032,-0.50563 0.0078,-0.697583 0.0062,-0.190392 0.0094,-0.313679 0.0125,-0.368299 0.0032,-0.05306 0.0062,-0.124847 0.0094,-0.215363 0.0016,-0.08896 0.0032,-0.340207 0.0032,-0.752204 0,-0.411994 0,-0.680416 0.0016,-0.805264 0.0016,-0.124848 0.0016,-0.196634 0.0032,-0.218483 0.0016,-0.02185 0.0078,-0.04214 0.01874,-0.06398 0.01087,-0.02028 0.03904,-0.04058 0.08115,-0.05775 0.0437,-0.01872 0.08583,-0.02965 0.127967,-0.03589 0.04214,-0.0046 0.08427,-0.0094 0.12953,-0.0094 0.0437,-0.0015 0.104561,-0.0062 0.177906,-0.01249 0.07491,-0.0078 0.1545,-0.01405 0.241893,-0.01872 0.08583,-0.0046 0.196634,-0.0062 0.332408,-0.0062 0.13577,0 0.224725,-0.0032 0.266857,-0.0046 0.04214,-0.0032 0.08896,-0.0046 0.145139,-0.0046 0.05462,0 0.0952,0.0062 0.123285,0.02028 0.02809,0.01405 0.04994,0.03589 0.06398,0.06711 0.01558,0.03121 0.02809,0.08428 0.03899,0.15762 0.01087,0.07491 0.02186,0.177906 0.03276,0.312118 0.01087,0.13421 0.01874,0.237209 0.02341,0.307435 0.0046,0.07023 0.0078,0.142015 0.01087,0.218484 0.0016,0.07647 0.0032,0.162301 0.0032,0.254376 0.0016,0.09363 0.0032,0.227847 0.0062,0.407314 0.0016,0.177907 0.0032,0.433843 0.0046,0.764689 0,0.330845 0,0.543086 0.0016,0.63672 0,0.09363 0.0016,0.185712 0.0046,0.276225 0.0016,0.09052 0.0046,0.248133 0.0078,0.474421 0.0032,0.224723 0.0078,0.438524 0.01406,0.641401 0.0078,0.202876 0.01087,0.338648 0.0125,0.410436 0,0.07022 0.0062,0.18727 0.01562,0.349571 0.0094,0.163863 0.01562,0.277785 0.01718,0.34177 0.0032,0.06398 0.0046,0.149816 0.0046,0.255936 0,0.107676 -0.0032,0.18259 -0.0094,0.224726 -0.0046,0.04214 -0.02029,0.110801 -0.04682,0.202876 -0.02497,0.09363 -0.04525,0.162302 -0.06086,0.205998 -0.01407,0.0437 -0.03276,0.08427 -0.05306,0.118605 -0.02186,0.03434 -0.04838,0.06555 -0.07959,0.09208 -0.0312,0.02653 -0.07022,0.0515 -0.113921,0.07491 -0.0437,0.02185 -0.117044,0.05151 -0.216926,0.08896 -0.101435,0.03745 -0.185708,0.06711 -0.252815,0.08739 -0.06711,0.02184 -0.146696,0.0437 -0.238771,0.06866 -0.09051,0.02341 -0.168542,0.04214 -0.234086,0.05306 -0.06398,0.01248 -0.124847,0.02185 -0.18415,0.02809 -0.05775,0.0062 -0.138894,0.01087 -0.24345,0.01403 -0.104561,0.0046 -0.182588,0.0078 -0.234089,0.0094 -0.05151,0.0031 -0.134212,0.0031 -0.251256,0.0046 -0.115483,0 -0.252815,-0.0094 -0.410434,-0.02809 -0.157623,-0.02028 -0.279346,-0.03277 -0.363619,-0.04058 -0.08583,-0.0078 -0.145134,-0.01561 -0.179468,-0.02028 -0.03588,-0.0062 -0.07023,-0.01403 -0.104561,-0.02497 -0.03588,-0.01087 -0.08272,-0.02965 -0.140453,-0.05618 -0.05931,-0.02652 -0.101435,-0.04994 -0.12797,-0.06711 -0.02652,-0.01717 -0.05306,-0.04058 -0.08115,-0.06866 -0.02808,-0.02965 -0.05306,-0.06242 -0.07491,-0.09832 -0.02186,-0.03745 -0.05306,-0.107676 -0.09363,-0.2138 -0.04058,-0.106123 -0.07646,-0.201316 -0.110801,-0.285589 -0.03276,-0.08427 -0.05931,-0.1623 -0.08115,-0.232528 -0.02029,-0.07179 -0.03588,-0.132648 -0.04838,-0.182588 -0.01247,-0.05151 -0.02809,-0.113925 -0.04682,-0.18727 -0.01874,-0.07335 -0.03588,-0.145137 -0.05149,-0.215364 -0.01558,-0.07022 -0.03904,-0.166981 -0.07179,-0.290269 -0.0312,-0.123285 -0.06086,-0.243451 -0.08739,-0.358935 -0.02497,-0.113924 -0.04525,-0.20756 -0.05775,-0.277785 -0.01406,-0.07022 -0.02808,-0.134212 -0.04214,-0.191953 -0.01562,-0.05618 -0.03588,-0.110801 -0.06242,-0.16074 -0.02809,-0.04994 -0.05149,-0.09676 -0.07179,-0.140454 -0.02029,-0.04369 -0.05149,-0.09208 -0.09363,-0.146696 -0.04058,-0.05306 -0.07335,-0.08427 -0.09676,-0.09363 -0.02186,-0.0078 -0.0437,-0.0032 -0.06087,0.01561 -0.01873,0.01872 -0.03904,0.05774 -0.06242,0.120165 -0.02341,0.06242 -0.04058,0.113923 -0.05306,0.152937 -0.01247,0.04058 -0.02497,0.110801 -0.03744,0.210681 -0.01247,0.09987 -0.02497,0.223164 -0.03588,0.369858 -0.01247,0.145135 -0.02341,0.255938 -0.03276,0.330846 -0.0093,0.07491 -0.02652,0.162303 -0.04838,0.26374 -0.02341,0.101436 -0.03744,0.184149 -0.04682,0.245013 -0.0078,0.06086 -0.01407,0.151377 -0.01874,0.274665 -0.0062,0.123285 -0.0094,0.210678 -0.01247,0.265298 -0.0032,0.05306 -0.0078,0.107676 -0.01562,0.165424 -0.0062,0.05775 -0.02029,0.143574 -0.04213,0.259059 -0.02029,0.117043 -0.03904,0.2138 -0.0515,0.290268 -0.01407,0.07646 -0.02809,0.134213 -0.04058,0.168545 -0.0125,0.03589 -0.02497,0.06398 -0.03744,0.08272 -0.01402,0.01717 -0.03591,0.03121 -0.06867,0.03745 -0.03276,0.0078 -0.07491,0.01248 -0.129526,0.01561 -0.05307,0.0032 -0.112364,0.01087 -0.176348,0.02341 -0.06398,0.01249 -0.135769,0.02028 -0.216922,0.02341 -0.08115,0.0031 -0.152937,0.0062 -0.21224,0.01087 -0.06087,0.0046 -0.115487,0.0062 -0.163863,0.0046 -0.04994,0 -0.09831,-0.01248 -0.146697,-0.03745 -0.04838,-0.02497 -0.08272,-0.04058 -0.106113,-0.04994 -0.02186,-0.0078 -0.07646,-0.01717 -0.159181,-0.02341 -0.08427,-0.0078 -0.146696,-0.01561 -0.185709,-0.02497 -0.05774,-0.01405 -0.148258,-0.06555 -0.268423,-0.15762"
       id="path23106-2" />
    <path
       style="fill:none;stroke:#abcc7f;stroke-width:0.622862;stroke-linecap:round;stroke-linejoin:round;stroke-miterlimit:10;stroke-opacity:1"
       d="m 34.970841,14.686932 c -0.02341,-0.02497 -0.02341,-0.08272 0.0016,-0.174788 0.01718,-0.0593 0.0312,-0.102998 0.04214,-0.13265 0.01247,-0.0281 0.02652,-0.05775 0.04525,-0.08583 0.01718,-0.0281 0.03904,-0.05618 0.06398,-0.08272 0.02652,-0.02808 0.05618,-0.05462 0.09051,-0.08115 0.03276,-0.02497 0.07179,-0.04994 0.112364,-0.07022 0.04214,-0.02185 0.08115,-0.03745 0.117045,-0.04994 0.03588,-0.01248 0.07491,-0.02028 0.118603,-0.02497 0.04525,-0.0046 0.08583,-0.0078 0.124848,-0.0078 0.03743,0 0.08115,0.0078 0.12797,0.02185 0.04682,0.01561 0.08739,0.03277 0.120165,0.05306 0.03276,0.02028 0.06399,0.04214 0.09363,0.06711 0.0312,0.02341 0.05618,0.04682 0.07803,0.06866 0.02186,0.02341 0.04525,0.05306 0.07179,0.09363 0.02497,0.03901 0.04838,0.08115 0.07022,0.12797 0.02029,0.04525 0.04994,0.121724 0.08896,0.227845 0.03899,0.106124 0.06711,0.195074 0.08583,0.268422 0.01874,0.07335 0.03904,0.18727 0.06087,0.34177 0.02341,0.154496 0.03899,0.269981 0.04838,0.344889 0.0094,0.07335 0.02029,0.15762 0.03276,0.249693 0.0125,0.09052 0.02186,0.165425 0.02965,0.223165 0.0062,0.05618 0.01562,0.174788 0.02809,0.354254 0.0125,0.179469 0.02341,0.351133 0.0312,0.514995 0.0093,0.163863 0.01562,0.296513 0.0187,0.401073 0.0046,0.102998 0.0062,0.362057 0.0062,0.777173 0,0.415117 0.0016,0.649206 0.0016,0.702267 0.0016,0.05306 0.0062,0.145135 0.01407,0.274664 0.0094,0.129529 0.01402,0.229406 0.01874,0.301193 0.0032,0.07335 0.0046,0.177909 0.0062,0.316799 0.0016,0.137333 -0.0032,0.237212 -0.01562,0.296513 -0.01087,0.06086 -0.02341,0.113924 -0.03744,0.162301 -0.0125,0.04682 -0.02809,0.09363 -0.0437,0.140453 -0.01718,0.04682 -0.03743,0.0952 -0.05773,0.143576 -0.02186,0.04838 -0.04214,0.08895 -0.06087,0.121726 -0.0187,0.03121 -0.04214,0.06398 -0.06866,0.09676 -0.02809,0.03277 -0.07648,0.07646 -0.148259,0.127968 -0.07179,0.05306 -0.124847,0.08896 -0.157619,0.109238 -0.03431,0.02185 -0.07022,0.04058 -0.110801,0.05931 -0.03904,0.01717 -0.07648,0.03121 -0.112363,0.03901 -0.03588,0.0078 -0.07335,0.01403 -0.115483,0.01872 -0.04214,0.0046 -0.09051,0.0062 -0.145134,0.0062 -0.05462,0 -0.115483,-0.0046 -0.182589,-0.01405 -0.06711,-0.01087 -0.12329,-0.02184 -0.168545,-0.0359 -0.04525,-0.01403 -0.09052,-0.03901 -0.13889,-0.07803 -0.04682,-0.03901 -0.08896,-0.08427 -0.124847,-0.137332 -0.03588,-0.05306 -0.07179,-0.113925 -0.106124,-0.18259 -0.04994,-0.101435 -0.107676,-0.238769 -0.174787,-0.411994"
       id="path23108-9" />
    <path
       style="fill:none;stroke:#abcc7f;stroke-width:0.622862;stroke-linecap:round;stroke-linejoin:round;stroke-miterlimit:10;stroke-opacity:1"
       d="m 39.075192,15.417287 c -0.07803,-0.04838 -0.14201,-0.07959 -0.193511,-0.0952 -0.03431,-0.0094 -0.07022,-0.01717 -0.107675,-0.02185 -0.03747,-0.0032 -0.07647,-0.0062 -0.115487,-0.0062 -0.04058,0 -0.08272,0.0015 -0.124847,0.0046 -0.04369,0.0015 -0.08896,0.01087 -0.137332,0.02497 -0.04682,0.01403 -0.09363,0.02809 -0.13889,0.04525 -0.0437,0.0156 -0.08583,0.03434 -0.124847,0.05462 -0.03904,0.01872 -0.07491,0.04214 -0.107675,0.06711 -0.03431,0.02652 -0.06555,0.05462 -0.0952,0.08583 -0.02965,0.03121 -0.05931,0.06399 -0.08583,0.09832 -0.02809,0.03434 -0.05306,0.07179 -0.07648,0.115484 -0.02341,0.04214 -0.04525,0.08739 -0.06555,0.134211 -0.02029,0.04838 -0.03904,0.09832 -0.05775,0.152937 -0.01874,0.05306 -0.04994,0.15762 -0.0952,0.31212 -0.04369,0.152937 -0.07179,0.252814 -0.0827,0.29807 -0.01087,0.04525 -0.02965,0.145137 -0.05307,0.299634 -0.02497,0.1545 -0.04058,0.257497 -0.04682,0.310558 -0.0062,0.05306 -0.01247,0.102998 -0.01562,0.151378 -0.0032,0.04838 -0.0046,0.134211 -0.0062,0.257498 0,0.123286 0.0016,0.212238 0.0032,0.268421 0.0016,0.05462 0.0046,0.110801 0.0094,0.166982 0.0032,0.05462 0.01087,0.109238 0.0187,0.160741 0.0094,0.05306 0.02186,0.101435 0.03591,0.146697 0.01562,0.04525 0.04994,0.126407 0.106112,0.240329 0.05462,0.113924 0.09208,0.188832 0.112364,0.224725 0.02186,0.03745 0.04214,0.07022 0.06555,0.09988 0.02186,0.02965 0.04682,0.05618 0.07335,0.07959 0.02497,0.02341 0.0515,0.0437 0.08115,0.06086 0.02809,0.01561 0.05618,0.02809 0.08739,0.03745 0.02965,0.0094 0.07491,0.01717 0.134207,0.02028 0.06087,0.0046 0.12329,-0.0032 0.188832,-0.02184 0.06555,-0.02028 0.112364,-0.03745 0.138895,-0.04994 0.02809,-0.01405 0.05306,-0.02965 0.07646,-0.04682 0.02341,-0.01717 0.04682,-0.03745 0.06711,-0.0593 0.02186,-0.02185 0.04838,-0.05618 0.08272,-0.101435 0.03431,-0.0437 0.06555,-0.08272 0.09363,-0.115484 0.02809,-0.03277 0.05306,-0.06866 0.07491,-0.106124 0.02186,-0.03745 0.04214,-0.0827 0.0593,-0.13733 0.01718,-0.05306 0.03276,-0.110801 0.04838,-0.173228 0.01407,-0.06086 0.02809,-0.127966 0.04214,-0.199754 0.01402,-0.07335 0.02652,-0.124847 0.03588,-0.15762 0.0094,-0.03121 0.02652,-0.07335 0.05307,-0.126408 0.02497,-0.05151 0.04682,-0.08739 0.06242,-0.107676 0.01558,-0.01872 0.03431,-0.03434 0.05462,-0.04525 0.02029,-0.01087 0.04214,-0.02028 0.06866,-0.02652 0.02497,-0.0062 0.07491,-0.0094 0.151378,-0.0078 0.07491,0 0.13265,0.0046 0.174787,0.01561 0.04214,0.01087 0.0827,0.02341 0.123284,0.03745 0.03904,0.01403 0.07646,0.02965 0.113925,0.04838 0.03588,0.02028 0.07022,0.04058 0.101435,0.06555 0.02965,0.02497 0.05931,0.04994 0.08583,0.07803 0.02652,0.02652 0.05307,0.05618 0.07804,0.08739 0.02497,0.02965 0.04838,0.06399 0.07023,0.09987 0.02029,0.03434 0.03904,0.07179 0.05306,0.109238 0.01562,0.03745 0.02809,0.07648 0.04058,0.113924 0.01087,0.03745 0.02029,0.07803 0.02809,0.118605 0.0078,0.04058 0.01406,0.08272 0.01718,0.123288 0.0046,0.04214 0.0062,0.08427 0.0062,0.126405 0,0.04214 -0.0016,0.08583 -0.0046,0.131092 -0.0046,0.04525 -0.01087,0.09363 -0.02029,0.145134 -0.0094,0.0515 -0.02029,0.104561 -0.03276,0.15762 -0.0125,0.05306 -0.02809,0.106124 -0.04369,0.157621 -0.01718,0.05306 -0.03592,0.101435 -0.05618,0.146693 -0.02029,0.04525 -0.04214,0.08896 -0.06398,0.127968 -0.02341,0.04058 -0.04682,0.07647 -0.07335,0.110801 -0.02497,0.03277 -0.07491,0.08739 -0.146696,0.162302 -0.07179,0.07646 -0.126405,0.131089 -0.166984,0.165421 -0.04058,0.03434 -0.08272,0.06555 -0.127967,0.09676 -0.04525,0.03121 -0.143573,0.08583 -0.293388,0.165424 -0.149817,0.07959 -0.248137,0.129529 -0.296513,0.151377 -0.04682,0.02341 -0.09363,0.04369 -0.137336,0.06242 -0.04525,0.01872 -0.09207,0.03589 -0.13889,0.04994 -0.04682,0.01405 -0.118607,0.03277 -0.218485,0.05151 -0.09832,0.02028 -0.187271,0.03745 -0.263737,0.04994 -0.07803,0.01249 -0.137332,0.02028 -0.18103,0.02184 -0.04369,0.0031 -0.126409,0.0031 -0.248133,0.0031 -0.121727,0.0015 -0.213802,-0.0062 -0.273101,-0.02341 -0.06087,-0.01561 -0.127972,-0.03121 -0.204442,-0.04525 -0.07491,-0.01561 -0.126405,-0.02653 -0.156057,-0.0359 -0.0312,-0.0078 -0.05931,-0.02184 -0.08739,-0.04058 -0.02652,-0.02028 -0.05306,-0.04838 -0.07959,-0.08583 -0.03588,-0.05306 -0.09676,-0.171665 -0.179468,-0.354255"
       id="path23110-1" />
    <path
       style="fill:none;stroke:#abcc7f;stroke-width:0.622862;stroke-linecap:round;stroke-linejoin:round;stroke-miterlimit:10;stroke-opacity:1"
       d="m 39.122011,15.434453 c 0.0046,0.02497 0.03744,0.06555 0.09676,0.121727 0.05774,0.05462 0.102998,0.09207 0.134212,0.115484 0.0312,0.02185 0.06555,0.03901 0.102998,0.05149 0.03744,0.01087 0.07491,0.01872 0.113921,0.02028 0.04058,0.0031 0.07959,0.0015 0.120165,0 0.04058,-0.0032 0.09676,-0.01717 0.171669,-0.03901 0.07491,-0.02341 0.126406,-0.04214 0.156057,-0.05931 0.02965,-0.0156 0.05618,-0.03434 0.07959,-0.05774 0.02497,-0.02341 0.04682,-0.04994 0.06711,-0.07959 0.02029,-0.02965 0.03899,-0.06086 0.05774,-0.0952 0.01718,-0.03589 0.03276,-0.07491 0.04682,-0.117044 0.01407,-0.0437 0.02341,-0.08739 0.03276,-0.13109 0.0078,-0.0437 0.01247,-0.110801 0.01407,-0.201316 0.0032,-0.08896 -0.0016,-0.159179 -0.01247,-0.207558 -0.01087,-0.04838 -0.02497,-0.0952 -0.04058,-0.140453 -0.01718,-0.04525 -0.03588,-0.08739 -0.05618,-0.127969 -0.02029,-0.03901 -0.04214,-0.07803 -0.06555,-0.115484 -0.02497,-0.03589 -0.04838,-0.07335 -0.07491,-0.109238 -0.02652,-0.03589 -0.05462,-0.07179 -0.08583,-0.107675 -0.0312,-0.03434 -0.06555,-0.07023 -0.104561,-0.107687 -0.03743,-0.03589 -0.07646,-0.07179 -0.115483,-0.104561 -0.03904,-0.03277 -0.07803,-0.06242 -0.117044,-0.08739 -0.03904,-0.02653 -0.07803,-0.04994 -0.117045,-0.06866 -0.04058,-0.02028 -0.08115,-0.03901 -0.123285,-0.05462 -0.0437,-0.01561 -0.08583,-0.02965 -0.12953,-0.04214 -0.0437,-0.01248 -0.08739,-0.02341 -0.132649,-0.03434 -0.0437,-0.0094 -0.08896,-0.01717 -0.135774,-0.02497 -0.04682,-0.0078 -0.117041,-0.01403 -0.21224,-0.02185 -0.09363,-0.0062 -0.166984,-0.01087 -0.216922,-0.01087 -0.05149,0 -0.104561,0.0032 -0.16074,0.01087 -0.05462,0.0078 -0.13265,0.02497 -0.234089,0.05306 -0.101435,0.02809 -0.176348,0.04994 -0.224725,0.06242 -0.04994,0.01403 -0.09207,0.02808 -0.126405,0.04058 -0.03431,0.01249 -0.07491,0.02965 -0.121728,0.0515 -0.04838,0.02028 -0.118606,0.06086 -0.212243,0.118605 -0.0952,0.05931 -0.165422,0.102999 -0.210678,0.132651 -0.04682,0.02965 -0.08896,0.05774 -0.127967,0.08739 -0.03904,0.02965 -0.07648,0.06086 -0.110801,0.0952 -0.03588,0.03434 -0.101436,0.107675 -0.198194,0.218482 -0.159181,0.182589 -0.26842,0.298073 -0.327723,0.346452"
       id="path23112-2" />
    <path
       style="fill:none;stroke:#abcc7f;stroke-width:0.622862;stroke-linecap:round;stroke-linejoin:round;stroke-miterlimit:10;stroke-opacity:1"
       d="m 21.972684,23.290465 c -0.0094,-0.03745 -0.0094,-0.07491 0.0032,-0.112364 0.0078,-0.02497 0.02808,-0.06398 0.06398,-0.117044 0.03431,-0.05462 0.07022,-0.102999 0.106113,-0.146696 0.03588,-0.04369 0.07022,-0.08115 0.106124,-0.113925 0.03431,-0.03121 0.07022,-0.05618 0.109238,-0.07646 0.03904,-0.01872 0.09987,-0.04525 0.182592,-0.07803 0.08115,-0.03121 0.170104,-0.05931 0.263737,-0.08272 0.09363,-0.02341 0.193515,-0.04369 0.301195,-0.06086 0.107676,-0.01717 0.205996,-0.0281 0.29651,-0.03277 0.09052,-0.0046 0.163863,-0.0062 0.220046,-0.0046 0.05618,0 0.09988,0.0032 0.12953,0.0078 0.02965,0.0046 0.0671,0.01561 0.109238,0.02965 0.0437,0.01403 0.08739,0.03277 0.131091,0.0593 0.04525,0.02653 0.09207,0.06711 0.145135,0.121726 0.05306,0.05462 0.0952,0.101436 0.126408,0.140455 0.0312,0.04058 0.06555,0.08583 0.102999,0.138892 0.03743,0.05306 0.07022,0.102999 0.09987,0.148254 0.02965,0.04525 0.06086,0.09988 0.09363,0.165425 0.03276,0.06555 0.07646,0.165421 0.131088,0.299633 0.05618,0.13421 0.104561,0.259058 0.146696,0.372982 0.04214,0.115482 0.07803,0.216921 0.107687,0.305875 0.0312,0.08896 0.06242,0.188831 0.0952,0.301193 0.03276,0.112364 0.0671,0.238771 0.101436,0.379225 0.03431,0.140453 0.06086,0.259058 0.08115,0.354253 0.02029,0.09676 0.0437,0.195074 0.06867,0.298073 0.02497,0.102999 0.0515,0.209118 0.07646,0.316799 0.02652,0.109239 0.05775,0.243453 0.09363,0.404194 0.03588,0.162302 0.06555,0.282466 0.08896,0.362057 0.02341,0.07959 0.04369,0.148256 0.06242,0.205998 0.0187,0.05774 0.03744,0.121725 0.05618,0.195073 0.01874,0.07335 0.03431,0.135772 0.04994,0.187272 0.01562,0.05306 0.0312,0.104561 0.04838,0.156058 0.01718,0.05149 0.0437,0.121727 0.08115,0.21068 0.03743,0.08896 0.06711,0.151377 0.08895,0.187272 0.02186,0.03745 0.04682,0.07179 0.07646,0.106112 0.02965,0.03277 0.05306,0.05306 0.07179,0.06086 0.02029,0.0078 0.03743,0.01087 0.05306,0.01087 0.01718,-0.0015 0.04525,-0.02652 0.08428,-0.07803 0.04058,-0.05151 0.06555,-0.08739 0.07646,-0.110801 0.01087,-0.02341 0.02186,-0.05618 0.03431,-0.101436 0.0125,-0.0437 0.02186,-0.101435 0.02965,-0.171664 0.0078,-0.07179 0.01407,-0.152937 0.01873,-0.245014 0.0032,-0.09051 0.0046,-0.174785 0.0062,-0.249693 0,-0.07647 0.0032,-0.221606 0.0094,-0.435406 0.0062,-0.213801 0.0094,-0.457254 0.0094,-0.730356 0,-0.273105 0.0032,-0.505631 0.0078,-0.697583 0.0062,-0.191953 0.0094,-0.31368 0.01407,-0.368302 0.0032,-0.05462 0.0046,-0.126405 0.0078,-0.215361 0.0016,-0.08896 0.0032,-0.340209 0.0032,-0.752203 0,-0.413559 0.0016,-0.681979 0.0016,-0.805265 0.0016,-0.124848 0.0032,-0.198196 0.0032,-0.218484 0.0016,-0.02185 0.0078,-0.04214 0.01873,-0.06398 0.01087,-0.02028 0.03904,-0.04058 0.08272,-0.05775 0.04214,-0.01872 0.08428,-0.02965 0.126409,-0.03589 0.04214,-0.0062 0.08583,-0.0094 0.129529,-0.01087 0.04525,0 0.104562,-0.0046 0.177906,-0.01248 0.07491,-0.0062 0.156057,-0.01249 0.241892,-0.01717 0.08583,-0.0046 0.196635,-0.0078 0.332405,-0.0078 0.137331,0 0.226283,-0.0015 0.266861,-0.0046 0.04214,-0.0032 0.09051,-0.0046 0.145134,-0.0046 0.05462,0 0.0952,0.0078 0.123285,0.02185 0.02809,0.01405 0.04994,0.0359 0.06398,0.06711 0.01558,0.03121 0.02965,0.08427 0.04058,0.157618 0.01087,0.07335 0.02186,0.177908 0.0312,0.312118 0.01087,0.134212 0.01873,0.235649 0.02341,0.305877 0.0046,0.07022 0.0078,0.143573 0.01087,0.220044 0.0032,0.07646 0.0032,0.16074 0.0046,0.254374 0,0.09207 0.0016,0.227848 0.0046,0.407314 0.0032,0.177908 0.0046,0.432285 0.0046,0.764692 0,0.330844 0,0.543085 0.0016,0.636718 0,0.09363 0.0016,0.185712 0.0046,0.276226 0.0016,0.09052 0.0046,0.248134 0.0078,0.474418 0.0032,0.224726 0.0078,0.438526 0.01562,0.641404 0.0062,0.201316 0.0094,0.338649 0.01087,0.408873 0,0.07179 0.0062,0.188833 0.01562,0.351135 0.0094,0.163863 0.01562,0.276223 0.01874,0.341767 0.0016,0.06398 0.0032,0.148259 0.0032,0.255939 0,0.106124 -0.0032,0.18103 -0.0078,0.224724 -0.0062,0.04214 -0.02186,0.109238 -0.04682,0.202877 -0.02652,0.09363 -0.04682,0.160743 -0.06086,0.205999 -0.01562,0.04369 -0.03431,0.08272 -0.05462,0.118602 -0.02186,0.03431 -0.04838,0.06555 -0.07959,0.09208 -0.0312,0.02652 -0.06867,0.0515 -0.113924,0.07335 -0.04369,0.02341 -0.117044,0.05306 -0.216918,0.09051 -0.101436,0.03744 -0.185713,0.06711 -0.252819,0.08739 -0.06711,0.02186 -0.146696,0.0437 -0.238767,0.06711 -0.09052,0.02497 -0.168546,0.04214 -0.232531,0.05462 -0.06555,0.01247 -0.126409,0.02186 -0.185709,0.02808 -0.05775,0.0062 -0.138894,0.01087 -0.243454,0.01407 -0.104561,0.0046 -0.182588,0.0062 -0.234089,0.0094 -0.05149,0.0016 -0.134212,0.0032 -0.251257,0.0032 -0.115478,0 -0.25281,-0.0094 -0.410434,-0.02808 -0.157618,-0.01874 -0.279345,-0.0312 -0.363618,-0.04058 -0.08427,-0.0078 -0.14513,-0.01402 -0.179469,-0.01874 -0.03588,-0.0062 -0.07022,-0.01406 -0.104561,-0.02497 -0.03431,-0.01087 -0.08115,-0.02965 -0.140452,-0.05618 -0.05931,-0.02808 -0.101436,-0.04994 -0.127971,-0.0671 -0.02652,-0.01718 -0.05306,-0.04058 -0.08115,-0.07024 -0.02809,-0.02808 -0.05307,-0.06086 -0.0749,-0.09831 -0.02186,-0.03588 -0.05307,-0.106124 -0.09363,-0.21224 -0.04058,-0.106124 -0.07648,-0.201314 -0.110801,-0.285586 -0.03276,-0.08428 -0.05931,-0.162305 -0.07959,-0.23409 -0.02186,-0.07023 -0.03744,-0.131087 -0.04994,-0.182589 -0.01247,-0.04994 -0.02809,-0.112364 -0.04682,-0.185711 -0.01874,-0.07335 -0.03588,-0.145135 -0.05149,-0.215361 -0.01562,-0.07023 -0.03904,-0.166983 -0.07179,-0.290271 -0.0312,-0.123286 -0.06087,-0.243452 -0.08583,-0.358935 -0.02652,-0.115484 -0.04682,-0.207559 -0.05931,-0.277785 -0.01407,-0.07179 -0.02809,-0.134211 -0.04214,-0.191953 -0.01562,-0.05774 -0.03588,-0.110801 -0.06242,-0.160741 -0.02809,-0.04994 -0.05151,-0.09676 -0.07179,-0.140452 -0.02029,-0.04369 -0.0515,-0.09363 -0.09363,-0.146696 -0.04058,-0.05462 -0.07335,-0.08583 -0.0952,-0.09363 -0.02341,-0.0094 -0.04369,-0.0032 -0.06242,0.01403 -0.01874,0.01872 -0.03904,0.05931 -0.06242,0.121727 -0.02186,0.06242 -0.04058,0.113922 -0.05306,0.152937 -0.01087,0.04058 -0.02341,0.110801 -0.03744,0.21068 -0.0125,0.09987 -0.02497,0.223165 -0.03588,0.368299 -0.0125,0.146696 -0.02341,0.257497 -0.03276,0.330845 -0.0094,0.07491 -0.02497,0.163862 -0.04838,0.265302 -0.02186,0.101435 -0.03744,0.182588 -0.04525,0.243451 -0.0094,0.06086 -0.01562,0.152937 -0.02029,0.276221 -0.0046,0.12329 -0.0094,0.210683 -0.0125,0.263741 -0.0032,0.05462 -0.0078,0.109239 -0.01562,0.166984 -0.0062,0.05618 -0.02029,0.143576 -0.04214,0.259059 -0.02029,0.115483 -0.03744,0.21224 -0.05149,0.290268 -0.01407,0.07646 -0.02809,0.13265 -0.04058,0.168546 -0.01247,0.03588 -0.02497,0.06398 -0.03744,0.08115 -0.01407,0.01874 -0.03588,0.0312 -0.06866,0.03904 -0.03276,0.0062 -0.07491,0.01247 -0.12953,0.01558 -0.05306,0.0032 -0.110801,0.01087 -0.174786,0.02341 -0.06398,0.0125 -0.137331,0.02029 -0.218484,0.02341 -0.08115,0.0016 -0.152937,0.0062 -0.21224,0.0094 -0.06086,0.0046 -0.115483,0.0062 -0.163859,0.0062 -0.04994,-0.0016 -0.09832,-0.01407 -0.146696,-0.03744 -0.04838,-0.02497 -0.08272,-0.04214 -0.106113,-0.04994 -0.02186,-0.0094 -0.07491,-0.01718 -0.159181,-0.02341 -0.08428,-0.0078 -0.146696,-0.01562 -0.185713,-0.02497 -0.05775,-0.01407 -0.146693,-0.06555 -0.26842,-0.15762"
       id="path23114-7" />
    <path
       style="fill:none;stroke:#abcc7f;stroke-width:0.622862;stroke-linecap:round;stroke-linejoin:round;stroke-miterlimit:10;stroke-opacity:1"
       d="m 21.262614,29.295618 c 0.01718,-0.09676 0.0437,-0.212239 0.07803,-0.344889 0.03431,-0.132653 0.07179,-0.298075 0.112364,-0.493148 0.04058,-0.195073 0.07022,-0.349572 0.08739,-0.463496 0.01874,-0.112364 0.03276,-0.196634 0.0437,-0.251254 0.0094,-0.05462 0.0312,-0.190393 0.06398,-0.405755 0.0312,-0.216921 0.05618,-0.39795 0.07646,-0.544646 0.01873,-0.146694 0.03904,-0.274662 0.05931,-0.388586 0.02186,-0.112364 0.03744,-0.212241 0.04525,-0.301193 0.0094,-0.08739 0.01562,-0.195074 0.01718,-0.323043 0.0032,-0.129528 0.0032,-0.352693 0.0032,-0.672614 0,-0.319921 -0.0016,-0.519678 -0.0046,-0.597707 -0.0032,-0.07959 -0.0078,-0.15762 -0.01562,-0.234089 -0.0062,-0.07647 -0.01718,-0.156057 -0.03276,-0.235648 -0.01562,-0.08115 -0.03743,-0.162302 -0.06555,-0.245014 -0.02809,-0.08272 -0.06242,-0.168545 -0.102999,-0.257497 -0.04057,-0.09051 -0.07179,-0.152938 -0.0952,-0.18883 -0.02186,-0.0359 -0.04993,-0.07022 -0.08272,-0.102999 -0.03276,-0.03277 -0.09207,-0.08427 -0.176347,-0.1545 -0.08583,-0.07179 -0.157615,-0.124845 -0.213798,-0.162301 -0.05618,-0.03745 -0.121728,-0.07335 -0.198194,-0.109238 -0.07491,-0.03434 -0.138893,-0.06086 -0.188833,-0.07959 -0.04994,-0.01717 -0.112364,-0.0359 -0.185709,-0.0515 -0.07491,-0.01717 -0.134211,-0.03277 -0.18103,-0.04525 -0.04682,-0.01087 -0.107675,-0.02341 -0.182588,-0.03434 -0.07491,-0.01087 -0.140453,-0.01872 -0.193516,-0.02341 -0.05306,-0.0031 -0.123284,-0.0062 -0.210677,-0.0062 -0.08583,0 -0.17791,0.0094 -0.277788,0.02809 -0.09832,0.02028 -0.191953,0.04058 -0.279343,0.06398 -0.08896,0.02184 -0.15606,0.03901 -0.198197,0.05151 -0.0437,0.01087 -0.08583,0.02497 -0.127967,0.04214 -0.04214,0.01717 -0.08427,0.04058 -0.127967,0.06866 -0.0437,0.02809 -0.09832,0.07179 -0.160743,0.131091 -0.06242,0.05774 -0.137333,0.137331 -0.221606,0.23565 -0.08583,0.09832 -0.149815,0.176346 -0.191948,0.235649 -0.0437,0.05775 -0.113924,0.163862 -0.210683,0.315238 -0.09676,0.151377 -0.162301,0.262181 -0.198193,0.329286 -0.03431,0.06711 -0.07646,0.165421 -0.126408,0.29495 -0.04994,0.129531 -0.09052,0.235649 -0.123286,0.316801 -0.03276,0.08115 -0.07179,0.173225 -0.118607,0.276224 -0.04682,0.101436 -0.08272,0.184149 -0.107675,0.246573 -0.02652,0.06086 -0.05149,0.124849 -0.07491,0.190393 -0.02341,0.06555 -0.05931,0.173225 -0.106124,0.323042 -0.04838,0.148256 -0.09207,0.277785 -0.134209,0.385466 -0.04214,0.107675 -0.08428,0.218481 -0.123288,0.332405 -0.03904,0.113922 -0.07179,0.224726 -0.09676,0.330846 -0.02497,0.106124 -0.05306,0.226285 -0.0827,0.362057 -0.02965,0.13577 -0.06087,0.293391 -0.09676,0.471299 -0.03431,0.179466 -0.06086,0.324602 -0.07646,0.433843 -0.01718,0.110801 -0.02965,0.23253 -0.04058,0.366738 -0.0094,0.135775 -0.01562,0.245013 -0.02029,0.327728 -0.0032,0.08428 -0.0046,0.18727 -0.0062,0.307435 0,0.120164 0.0062,0.202876 0.02029,0.246574 0.01247,0.04525 0.03431,0.08272 0.06399,0.112364 0.0312,0.02965 0.06399,0.05306 0.09987,0.0671 0.03588,0.01407 0.09363,0.02652 0.174789,0.03904 0.07959,0.01402 0.156057,0.02029 0.227845,0.02186 0.07335,0.0032 0.138894,-0.0032 0.199756,-0.01402 0.06086,-0.01247 0.121727,-0.02029 0.18415,-0.02186 0.06242,-0.0016 0.132649,-0.0016 0.210678,0 0.07804,0.0032 0.146697,-0.01406 0.206,-0.04838 0.0593,-0.03588 0.106113,-0.06711 0.140451,-0.09676 0.03276,-0.02809 0.06866,-0.06555 0.104561,-0.115483 0.03588,-0.04994 0.07179,-0.107675 0.107687,-0.173228 0.03588,-0.06555 0.06555,-0.118603 0.08896,-0.156057 0.02341,-0.03904 0.04994,-0.08896 0.07803,-0.148254 0.02965,-0.06087 0.05306,-0.112364 0.07179,-0.157624 0.02029,-0.04369 0.03904,-0.0952 0.05931,-0.154495 0.01874,-0.05931 0.03904,-0.138893 0.0593,-0.237208 0.02029,-0.09832 0.03744,-0.171668 0.04994,-0.220048 0.0125,-0.04682 0.02965,-0.0952 0.05151,-0.142013 0.02341,-0.04682 0.04994,-0.08895 0.07959,-0.127968 0.0312,-0.03745 0.05618,-0.06398 0.07335,-0.07803 0.01874,-0.01561 0.05306,-0.02809 0.102999,-0.04058 0.05151,-0.01249 0.120169,-0.02185 0.207561,-0.02965 0.08583,-0.0062 0.162302,-0.01561 0.226284,-0.02653 0.06555,-0.01087 0.126409,-0.01717 0.185709,-0.01872 0.05774,0 0.09988,0.0015 0.127971,0.0062 0.02808,0.0046 0.06711,0.02028 0.115483,0.04527 0.04994,0.02497 0.08427,0.04525 0.101435,0.06086 0.01874,0.01717 0.03276,0.0359 0.04525,0.05775 0.0125,0.02184 0.02341,0.05775 0.03276,0.107675 0.0094,0.05149 0.01402,0.215361 0.01402,0.494708 0,0.277784 -0.0046,0.472857 -0.01562,0.582099 -0.0094,0.109238 -0.01407,0.191954 -0.01562,0.248132 0,0.05618 0.0032,0.09832 0.01087,0.127967 0.0078,0.02965 0.02652,0.05775 0.05462,0.08739 0.02965,0.02809 0.07491,0.05775 0.137331,0.08583 0.06242,0.02965 0.113924,0.04682 0.15762,0.04994 0.04525,0.0032 0.08739,0 0.131087,-0.0094 0.0437,-0.0094 0.0952,-0.01402 0.156061,-0.01402 0.06086,0.0016 0.107676,0.0046 0.140452,0.0094 0.04682,0.0078 0.113924,-0.01873 0.199755,-0.07959"
       id="path23116-0" />
    <path
       style="fill:none;stroke:#abcc7f;stroke-width:0.622862;stroke-linecap:round;stroke-linejoin:round;stroke-miterlimit:10;stroke-opacity:1"
       d="m 18.89208,25.764002 c 0.04993,0.02497 0.112363,0.04525 0.185708,0.05931 0.07335,0.01248 0.146697,0.02809 0.221605,0.04369 0.07335,0.01561 0.157619,0.02497 0.252815,0.02809 0.0952,0.0032 0.179468,-0.01087 0.255934,-0.04214 0.07491,-0.02965 0.121727,-0.04682 0.138894,-0.04994 0.01718,-0.0015 0.0312,-0.01717 0.04058,-0.04214 0.0094,-0.02653 0.01407,-0.109238 0.01718,-0.252817 0.0016,-0.142013 0.0062,-0.263739 0.01402,-0.365177 0.0078,-0.101436 0.01087,-0.205998 0.01087,-0.313678 0,-0.106124 -0.0016,-0.18571 -0.0062,-0.235649 -0.0046,-0.04994 -0.02029,-0.110801 -0.04527,-0.182589 -0.02341,-0.07335 -0.04525,-0.12953 -0.06398,-0.170105 -0.01718,-0.04058 -0.03276,-0.06866 -0.04525,-0.08427 -0.0125,-0.01717 -0.0312,-0.02965 -0.05775,-0.04058 -0.02652,-0.01087 -0.06867,-0.01561 -0.12641,-0.01561 -0.05774,0.0015 -0.09987,0.0078 -0.127967,0.01717 -0.02808,0.0094 -0.05931,0.02497 -0.09208,0.04682 -0.0312,0.02185 -0.06555,0.05462 -0.101435,0.09832 -0.03588,0.04525 -0.06555,0.08427 -0.08739,0.118603 -0.02186,0.03434 -0.04682,0.07959 -0.07335,0.13265 -0.02652,0.05462 -0.06398,0.137333 -0.112363,0.249697 -0.04682,0.113921 -0.07959,0.190392 -0.09832,0.232526 -0.01874,0.04058 -0.03588,0.08739 -0.05306,0.138893 -0.01718,0.05306 -0.02965,0.102998 -0.04058,0.152939 -0.01407,0.07179 -0.02965,0.182588 -0.04525,0.332405"
       id="path23118-9" />
    <path
       style="fill:none;stroke:#abcc7f;stroke-width:0.622862;stroke-linecap:round;stroke-linejoin:round;stroke-miterlimit:10;stroke-opacity:1"
       d="m 28.506876,24.407848 c 0.05931,0.01087 0.129529,0.01717 0.21224,0.01717 0.05462,0 0.106124,-0.0046 0.154498,-0.01561 0.04838,-0.0094 0.08896,-0.02028 0.121728,-0.03277 0.03276,-0.01087 0.07022,-0.02028 0.110801,-0.02653 0.04058,-0.0062 0.106124,-0.0094 0.198194,-0.0094 0.09363,-0.0015 0.162304,-0.0046 0.207561,-0.01249 0.04525,-0.0062 0.07803,-0.01087 0.09676,-0.01087 0.02029,0 0.03276,0.01717 0.03904,0.05462 0.0062,0.03745 0.0078,0.121727 0.0078,0.254377 0,0.134209 -0.0016,0.24189 -0.0062,0.324601 -0.0062,0.08272 -0.0078,0.221604 -0.0078,0.413557 0,0.191953 0.0032,0.371422 0.01087,0.536843 0.0094,0.166984 0.02186,0.369861 0.03904,0.610191 0.01718,0.23877 0.04058,0.521238 0.06711,0.848961 0.02652,0.326164 0.04214,0.550889 0.04369,0.672615 0.0032,0.121727 0.0078,0.243454 0.01087,0.363619 0.0046,0.118602 0.0094,0.220042 0.01562,0.301192 0.0062,0.08115 0.01407,0.15606 0.02341,0.221604 0.0094,0.06711 0.01873,0.115486 0.0312,0.145134 0.0125,0.0312 0.04214,0.06242 0.08739,0.09676 0.04525,0.03276 0.09363,0.05618 0.145134,0.07179 0.05149,0.01406 0.117044,0.02341 0.195073,0.02652 0.07803,0.0016 0.174785,0.0032 0.291831,0.0032 0.115486,0 0.199755,-0.0032 0.251256,-0.0094 0.05149,-0.0078 0.131088,-0.01562 0.235648,-0.02497 0.106124,-0.01087 0.15918,-0.06086 0.15918,-0.151375 0,-0.09052 -0.0032,-0.168546 -0.0094,-0.232532 -0.0046,-0.06242 -0.0094,-0.216918 -0.01247,-0.461934 -0.0032,-0.24345 -0.0078,-0.438525 -0.01406,-0.585221 -0.0062,-0.146696 -0.0094,-0.254377 -0.01087,-0.324602 -0.0016,-0.06866 -0.0062,-0.171665 -0.01247,-0.310557 -0.0062,-0.137332 -0.0125,-0.285589 -0.01718,-0.44321 -0.0046,-0.157617 -0.0094,-0.291829 -0.01407,-0.39951 -0.0032,-0.107686 -0.0062,-0.215361 -0.0062,-0.321481 0,-0.106124 0,-0.18727 -0.0016,-0.245013 -0.0016,-0.05775 -0.0046,-0.135772 -0.01087,-0.232529 -0.0062,-0.09832 -0.01407,-0.184149 -0.02186,-0.259058 -0.0078,-0.07491 -0.0125,-0.152936 -0.01562,-0.235649 -0.0032,-0.08427 -0.0046,-0.202876 -0.0046,-0.358934 0,-0.15762 0.0046,-0.243452 0.01402,-0.26218 0.0078,-0.01872 0.02652,-0.03434 0.05618,-0.04838 0.02965,-0.01249 0.07335,-0.02029 0.13265,-0.02341 0.05775,-0.0032 0.149817,-0.0046 0.276225,-0.0046 0.126406,0 0.218481,0.0046 0.276223,0.01087 0.05775,0.0078 0.326164,0.01248 0.809948,0.01248 0.482221,0 0.749083,-0.0015 0.802142,-0.0078 0.05307,-0.0046 0.112364,-0.01717 0.179468,-0.03745 0.06555,-0.02028 0.12953,-0.04838 0.190391,-0.08583 0.06242,-0.03589 0.104561,-0.06866 0.129533,-0.101436 0.02652,-0.03121 0.04369,-0.06866 0.05462,-0.112363 0.01087,-0.04369 0.01718,-0.154498 0.01718,-0.332406 0,-0.179468 -0.0016,-0.313677 -0.0046,-0.404194 -0.0046,-0.09052 -0.01247,-0.18727 -0.02341,-0.290269 -0.01087,-0.102998 -0.02497,-0.191953 -0.03904,-0.266861 -0.01407,-0.07491 -0.02965,-0.132649 -0.0437,-0.174786 -0.01562,-0.04214 -0.03743,-0.07646 -0.06399,-0.104561 -0.02809,-0.02809 -0.06866,-0.05462 -0.123284,-0.07959 -0.05307,-0.02653 -0.121727,-0.0515 -0.204442,-0.07646 -0.08428,-0.02497 -0.223163,-0.05775 -0.418236,-0.09988 -0.196636,-0.04058 -0.321483,-0.06711 -0.376103,-0.07646 -0.05306,-0.0094 -0.104561,-0.01561 -0.152937,-0.02028 -0.04994,-0.0046 -0.123289,-0.0078 -0.221605,-0.0078 -0.09831,0 -0.168545,0 -0.210678,0.0031 -0.04214,0.0031 -0.121727,0.01087 -0.235648,0.02652 -0.115486,0.01405 -0.22941,0.0281 -0.343331,0.04058 -0.113925,0.01087 -0.23721,0.02652 -0.36986,0.04682 -0.131091,0.01872 -0.226286,0.03121 -0.28559,0.03901 -0.05775,0.0062 -0.118603,0.01248 -0.18415,0.01561 -0.06555,0.0046 -0.13577,0.01405 -0.210678,0.02809 -0.07647,0.01403 -0.146696,0.02965 -0.21536,0.04682 -0.06711,0.01717 -0.135774,0.02809 -0.204438,0.03277 -0.06866,0.0046 -0.129529,0.01087 -0.182589,0.01717 -0.05462,0.0062 -0.121727,0.01872 -0.202879,0.03745 -0.08115,0.01872 -0.15762,0.03434 -0.227845,0.04525 -0.07179,0.0094 -0.156062,0.02028 -0.251257,0.03121 -0.0952,0.01087 -0.181026,0.02341 -0.257496,0.03589 -0.07646,0.01249 -0.171667,0.02028 -0.282467,0.02341 -0.110801,0.0031 -0.210681,0.01872 -0.298074,0.04838"
       id="path23120-3" />
    <path
       style="fill:none;stroke:#abcc7f;stroke-width:0.622862;stroke-linecap:round;stroke-linejoin:round;stroke-miterlimit:10;stroke-opacity:1"
       d="m 32.859362,24.442182 c -0.04838,0.04214 -0.08427,0.07646 -0.104561,0.102998 -0.01406,0.01872 -0.04214,0.07646 -0.08271,0.171665 -0.04214,0.09676 -0.09363,0.21068 -0.156061,0.346452 -0.06398,0.13421 -0.107675,0.237209 -0.132649,0.307435 -0.02497,0.07022 -0.04682,0.148256 -0.06398,0.235649 -0.01718,0.08896 -0.0312,0.184151 -0.04214,0.290272 -0.01087,0.104561 -0.02029,0.199754 -0.02809,0.285587 -0.0078,0.08583 -0.01247,0.15918 -0.01562,0.221604 -0.0032,0.06242 -0.0046,0.135772 -0.0046,0.221604 -0.0016,0.08427 0.0032,0.171666 0.01247,0.257498 0.0094,0.08739 0.02497,0.177906 0.0437,0.271542 0.02029,0.09363 0.04369,0.18571 0.07335,0.276225 0.02809,0.08896 0.06086,0.173225 0.09832,0.252814 0.03743,0.07959 0.08115,0.170105 0.134207,0.269983 0.05306,0.101436 0.102999,0.195073 0.151379,0.279346 0.04838,0.08428 0.09832,0.165421 0.149817,0.24345 0.05306,0.07804 0.104561,0.149817 0.156057,0.215364 0.0515,0.06555 0.104561,0.123286 0.157623,0.173224 0.05306,0.04994 0.134208,0.113925 0.241888,0.193516 0.107675,0.07959 0.187275,0.137331 0.237213,0.171666 0.05149,0.03588 0.12953,0.08427 0.234085,0.146695 0.106124,0.06398 0.187272,0.106113 0.245013,0.131089 0.05775,0.02341 0.110801,0.04214 0.160743,0.05462 0.04838,0.01406 0.110801,0.02497 0.184147,0.03744 0.07335,0.01087 0.148258,0.02029 0.223166,0.02497 0.07491,0.0046 0.149817,0.0046 0.223164,0.0016 0.07335,-0.0032 0.18415,-0.02341 0.332408,-0.06399 0.149817,-0.03904 0.245012,-0.06711 0.287149,-0.0827 0.04369,-0.01562 0.0952,-0.03904 0.156057,-0.07179 0.06242,-0.03276 0.124847,-0.07022 0.190391,-0.115483 0.06398,-0.04525 0.148258,-0.110801 0.254376,-0.195072 0.106123,-0.08583 0.182593,-0.149817 0.227849,-0.191953 0.04525,-0.04214 0.09052,-0.09052 0.13577,-0.143576 0.0437,-0.05306 0.08896,-0.117046 0.134212,-0.190391 0.04525,-0.07335 0.08739,-0.154499 0.127967,-0.238772 0.03904,-0.08583 0.07491,-0.173224 0.106124,-0.262179 0.03276,-0.08896 0.0593,-0.173225 0.08271,-0.251255 0.02341,-0.07803 0.04369,-0.156058 0.05931,-0.234089 0.01718,-0.07646 0.02965,-0.160741 0.04058,-0.251253 0.01087,-0.09052 0.0312,-0.31368 0.05931,-0.669495 0.02652,-0.355815 0.04214,-0.578978 0.04525,-0.667932 0.0032,-0.08896 0.0046,-0.177908 0.0062,-0.265301 0,-0.08896 -0.0062,-0.216921 -0.01874,-0.382345 -0.0125,-0.166982 -0.02497,-0.290269 -0.03591,-0.369858 -0.01087,-0.07803 -0.02497,-0.157621 -0.04058,-0.23409 -0.01562,-0.07647 -0.04682,-0.187271 -0.09051,-0.332405 -0.0437,-0.143574 -0.07647,-0.245013 -0.09988,-0.301194 -0.02341,-0.05618 -0.07491,-0.162301 -0.154498,-0.31836 -0.07959,-0.157621 -0.171666,-0.307438 -0.276226,-0.449451 -0.104561,-0.142013 -0.176344,-0.232529 -0.216923,-0.273103 -0.03899,-0.03901 -0.08427,-0.07646 -0.134211,-0.110801 -0.04993,-0.03434 -0.107675,-0.06398 -0.173224,-0.08739 -0.06555,-0.02185 -0.143573,-0.04369 -0.23409,-0.06086 -0.08896,-0.01717 -0.171666,-0.03434 -0.245011,-0.05306 -0.07335,-0.01872 -0.15762,-0.03901 -0.254377,-0.05774 -0.0952,-0.02028 -0.20912,-0.03277 -0.340207,-0.03589 -0.131092,-0.0032 -0.241893,0.0062 -0.332406,0.02808 -0.137331,0.03277 -0.273105,0.08427 -0.408875,0.15606"
       id="path23122-6" />
    <path
       style="fill:none;stroke:#abcc7f;stroke-width:0.622862;stroke-linecap:round;stroke-linejoin:round;stroke-miterlimit:10;stroke-opacity:1"
       d="m 34.819463,25.270855 c -0.115483,-0.01087 -0.196636,-0.01561 -0.24345,-0.01561 -0.03276,-0.0015 -0.06867,0.0062 -0.104561,0.02028 -0.03747,0.01403 -0.08115,0.04369 -0.131092,0.09052 -0.04838,0.04682 -0.09207,0.101436 -0.129529,0.163861 -0.03904,0.06242 -0.07646,0.142016 -0.112364,0.238772 -0.03743,0.09832 -0.06242,0.174786 -0.07491,0.230966 -0.01247,0.05618 -0.02341,0.115485 -0.0312,0.177909 -0.0078,0.06242 -0.0125,0.148256 -0.0125,0.255936 -0.0016,0.107687 0,0.18727 0.0032,0.240331 0.0032,0.05306 0.0125,0.120164 0.02652,0.199756 0.01247,0.08115 0.02809,0.16074 0.04525,0.23877 0.01718,0.07959 0.03744,0.151376 0.05931,0.218483 0.02341,0.06555 0.04838,0.121725 0.07803,0.170103 0.02809,0.04682 0.05931,0.08739 0.0952,0.121727 0.03591,0.03277 0.07335,0.06242 0.115487,0.08583 0.04213,0.02185 0.08739,0.04058 0.134207,0.05462 0.04838,0.01405 0.09832,0.02497 0.149817,0.03121 0.0515,0.0062 0.106124,0.0094 0.166984,0.0094 0.05931,0.0015 0.107676,-0.0032 0.142014,-0.01249 0.03588,-0.0094 0.07179,-0.02653 0.109239,-0.05306 0.03744,-0.02653 0.07335,-0.06086 0.104561,-0.101435 0.0312,-0.04214 0.06242,-0.09052 0.08895,-0.145134 0.02809,-0.05618 0.06087,-0.143575 0.09988,-0.26218 0.03899,-0.118605 0.06398,-0.204437 0.07491,-0.254377 0.01087,-0.04994 0.01874,-0.13265 0.02186,-0.248133 0.0046,-0.115484 0.0032,-0.205998 -0.0032,-0.273103 -0.0046,-0.06711 -0.01402,-0.138893 -0.02341,-0.216924 -0.0094,-0.07803 -0.02029,-0.149817 -0.03431,-0.218481 -0.0125,-0.06711 -0.02652,-0.124848 -0.0437,-0.174785 -0.01562,-0.04994 -0.03431,-0.0952 -0.05306,-0.137333 -0.01874,-0.04058 -0.04214,-0.08272 -0.06866,-0.123288 -0.02497,-0.04214 -0.05618,-0.0827 -0.08896,-0.121724 -0.03276,-0.03901 -0.07022,-0.07023 -0.110801,-0.0952 -0.05774,-0.03589 -0.249695,-0.04682 -0.572739,-0.03277"
       id="path23124-0" />
    <path
       style="fill:none;stroke:#abcc7f;stroke-width:0.622862;stroke-linecap:round;stroke-linejoin:round;stroke-miterlimit:10;stroke-opacity:1"
       d="m 36.180301,29.365845 c 0.04056,0.0032 0.117044,0.0046 0.232524,0.0062 0.113924,0 0.193514,-0.0016 0.238771,-0.0062 0.0437,-0.0046 0.113924,-0.02341 0.210678,-0.05306 0.0952,-0.0312 0.176348,-0.05462 0.240333,-0.07179 0.06242,-0.01718 0.112364,-0.03588 0.148259,-0.05618 0.03588,-0.01873 0.06866,-0.04058 0.09676,-0.06243 0.02809,-0.02341 0.05462,-0.04994 0.07803,-0.07959 0.02341,-0.0312 0.04682,-0.06398 0.06711,-0.09988 0.02186,-0.03588 0.04214,-0.07335 0.05931,-0.112352 0.01874,-0.03904 0.03588,-0.08272 0.04994,-0.129533 0.01562,-0.04525 0.03431,-0.127964 0.05774,-0.246571 0.02341,-0.118606 0.04994,-0.2575 0.08115,-0.416677 0.03276,-0.159181 0.05618,-0.290272 0.07179,-0.39327 0.01718,-0.102999 0.02965,-0.216921 0.04058,-0.34333 0.01087,-0.126407 0.01718,-0.241892 0.0187,-0.346452 0.0016,-0.104561 0.0032,-0.224726 0.0032,-0.360495 0,-0.135772 0.0046,-0.251256 0.01402,-0.344892 0.01087,-0.09363 0.01874,-0.162302 0.02497,-0.205998 0.0062,-0.04214 0.01718,-0.08271 0.0312,-0.123286 0.01562,-0.03901 0.03276,-0.07646 0.05618,-0.110801 0.02186,-0.03277 0.04838,-0.06711 0.08115,-0.09987 0.0312,-0.03121 0.06243,-0.05775 0.09363,-0.07646 0.0312,-0.01872 0.05774,-0.03121 0.08115,-0.03901 0.02341,-0.0078 0.04682,-0.01249 0.07335,-0.01249 0.02497,-0.0015 0.05149,0.0015 0.07646,0.0094 0.02652,0.0062 0.05462,0.02341 0.08739,0.05151 0.0312,0.02652 0.0593,0.0593 0.08583,0.0952 0.02497,0.03745 0.05775,0.09832 0.09987,0.185709 0.04058,0.08583 0.07179,0.166984 0.09052,0.243453 0.02029,0.07646 0.04058,0.195073 0.06398,0.355813 0.02341,0.162302 0.0437,0.310558 0.06086,0.449451 0.01562,0.137333 0.03276,0.282466 0.04838,0.436966 0.01562,0.152937 0.02497,0.262178 0.02809,0.327722 0.0032,0.06398 0.0046,0.15138 0.0046,0.25906 0,0.107675 0.0032,0.223163 0.0094,0.34489 0.0062,0.121727 0.01562,0.23721 0.02497,0.346452 0.01087,0.109238 0.02808,0.216922 0.05306,0.324603 0.02341,0.107675 0.0437,0.199754 0.06087,0.274663 0.01562,0.07646 0.02965,0.127967 0.03899,0.156061 0.0078,0.02652 0.02965,0.06711 0.06086,0.118603 0.03276,0.05151 0.06555,0.09051 0.09832,0.115486 0.03431,0.02497 0.08272,0.04369 0.148254,0.05462 0.06399,0.0125 0.135774,0.01873 0.215361,0.02029 0.07803,0.0016 0.168545,0.0046 0.268423,0.01247 0.09987,0.0078 0.182588,0.0125 0.246574,0.01562 0.06555,0.0032 0.162301,0.0046 0.29183,0.0046 0.131088,0 0.234085,-0.0032 0.310557,-0.0094 0.07648,-0.0062 0.149816,-0.0094 0.223162,-0.0094 0.07335,-0.0016 0.132654,-0.0046 0.177911,-0.01402 0.04682,-0.0078 0.08115,-0.02497 0.107675,-0.04838 0.02497,-0.02497 0.05462,-0.06555 0.08739,-0.121726 0.03276,-0.05618 0.06087,-0.110801 0.08428,-0.163864 0.02186,-0.05306 0.05618,-0.143572 0.09987,-0.27154 0.04525,-0.127967 0.07803,-0.229407 0.09987,-0.304315 0.02186,-0.07646 0.04058,-0.157619 0.05774,-0.243453 0.01558,-0.08739 0.03431,-0.220043 0.05618,-0.399508 0.02186,-0.17791 0.0437,-0.391711 0.06555,-0.638285 0.02341,-0.248132 0.03588,-0.415118 0.04213,-0.50251 0.0046,-0.08739 0.0094,-0.171665 0.01087,-0.254376 0.0016,-0.08115 0.0062,-0.202878 0.01562,-0.362058 0.0078,-0.159178 0.01558,-0.287146 0.02186,-0.380783 0.0062,-0.0952 0.02186,-0.29183 0.04525,-0.591463 0.02341,-0.299633 0.03747,-0.490026 0.0437,-0.569617 0.0046,-0.08115 0.0078,-0.204437 0.01087,-0.372979 0.0016,-0.168545 0.0016,-0.368302 0.0016,-0.599267 0,-0.232529 -0.0016,-0.374542 -0.0062,-0.427602 -0.0046,-0.05306 -0.01402,-0.102998 -0.02808,-0.149817 -0.01247,-0.04525 -0.02809,-0.08427 -0.04525,-0.115484 -0.01874,-0.03117 -0.03904,-0.0577 -0.06087,-0.07642 -0.02341,-0.02028 -0.0671,-0.04525 -0.13265,-0.07647 -0.06398,-0.03121 -0.115482,-0.05462 -0.154498,-0.06711 -0.03899,-0.01403 -0.07959,-0.02497 -0.121723,-0.03589 -0.04214,-0.01087 -0.09363,-0.02028 -0.151379,-0.02965 -0.05931,-0.0078 -0.127968,-0.01403 -0.205996,-0.01403 -0.07803,-0.0015 -0.132653,-0.0015 -0.163863,-0.0015 -0.02965,0.0015 -0.07335,0.01248 -0.131092,0.03277 -0.05618,0.01872 -0.110801,0.04682 -0.162301,0.08272 -0.04994,0.03589 -0.09208,0.07491 -0.124847,0.115481 -0.03431,0.04058 -0.06399,0.09832 -0.09363,0.171666 -0.02965,0.07335 -0.04994,0.134212 -0.06398,0.179468 -0.01407,0.04682 -0.02497,0.09363 -0.03588,0.143575 -0.0094,0.04838 -0.01718,0.110801 -0.02029,0.188831 -0.0046,0.07647 -0.0094,0.140453 -0.01718,0.191953 -0.0062,0.05149 -0.01087,0.106124 -0.01247,0.163861 -0.0032,0.05618 -0.0046,0.162303 -0.0046,0.318361 0,0.1545 -0.0032,0.296513 -0.0062,0.427602 -0.0046,0.129529 -0.0078,0.274664 -0.01247,0.436966 -0.0032,0.162301 -0.0078,0.287148 -0.0125,0.374541 -0.0046,0.08739 -0.0094,0.152937 -0.01402,0.195074 -0.0032,0.04369 -0.01087,0.09363 -0.02029,0.151376 -0.01087,0.05775 -0.02652,0.104561 -0.04525,0.142013 -0.02029,0.03745 -0.03591,0.05931 -0.04682,0.06242 -0.0125,0.0046 -0.02652,-0.01872 -0.04527,-0.07179 -0.01874,-0.05306 -0.04682,-0.145137 -0.08428,-0.277785 -0.03743,-0.131092 -0.07179,-0.246573 -0.101436,-0.346453 -0.02808,-0.09832 -0.05462,-0.198194 -0.07803,-0.298073 -0.02186,-0.09987 -0.05306,-0.209118 -0.09208,-0.329283 -0.03904,-0.118605 -0.06555,-0.202877 -0.07959,-0.252817 -0.01407,-0.04838 -0.02809,-0.118605 -0.04369,-0.212241 -0.01407,-0.09207 -0.02809,-0.188825 -0.04214,-0.287144 -0.0125,-0.09832 -0.02652,-0.177905 -0.04214,-0.235649 -0.01562,-0.05775 -0.02808,-0.123285 -0.03904,-0.196633 -0.01087,-0.07335 -0.02029,-0.156058 -0.02652,-0.248134 -0.0062,-0.09208 -0.0125,-0.163862 -0.01718,-0.215362 -0.0046,-0.05149 -0.01562,-0.109238 -0.03431,-0.173225 -0.01718,-0.06398 -0.03904,-0.123287 -0.06398,-0.177908 -0.02652,-0.05462 -0.04838,-0.09051 -0.06555,-0.110801 -0.01718,-0.01872 -0.03744,-0.0359 -0.05931,-0.04838 -0.02186,-0.01248 -0.06866,-0.02652 -0.142014,-0.04058 -0.07335,-0.01403 -0.140451,-0.02184 -0.201317,-0.02497 -0.06086,-0.0031 -0.134212,-0.0031 -0.220043,-0.0046 -0.08427,0 -0.205995,0.01087 -0.363618,0.02965 -0.157619,0.01872 -0.324603,0.0437 -0.502509,0.07647 -0.177907,0.03121 -0.31368,0.05306 -0.410434,0.06711 -0.09676,0.01248 -0.170107,0.02497 -0.223167,0.03277 -0.0515,0.0094 -0.112364,0.02184 -0.179464,0.04058 -0.06866,0.01872 -0.124851,0.03745 -0.170107,0.05462 -0.04525,0.01717 -0.08583,0.03121 -0.121727,0.04214 -0.03588,0.0094 -0.113921,0.02497 -0.23409,0.04525"
       id="path23126-6" />
    <path
       style="fill:none;stroke:#abcc7f;stroke-width:0.622862;stroke-linecap:round;stroke-linejoin:round;stroke-miterlimit:10;stroke-opacity:1"
       d="m 20.104656,36.293308 c -0.02186,0.06711 -0.01718,0.277784 0.0125,0.632038 0.01718,0.205995 0.02809,0.357374 0.03276,0.457252 0.0046,0.09987 0.0078,0.224725 0.0078,0.37142 0,0.148256 -0.0125,0.249696 -0.03591,0.305879 -0.02341,0.05618 -0.05618,0.121722 -0.09832,0.196631 -0.04058,0.07646 -0.07022,0.126409 -0.08739,0.149817 -0.01874,0.02497 -0.06086,0.05462 -0.12953,0.09207 -0.06867,0.03588 -0.12953,0.06242 -0.179468,0.07959 -0.05151,0.01718 -0.109239,0.02652 -0.173228,0.02965 -0.06399,0.0032 -0.151375,-0.0078 -0.263738,-0.03588 -0.110801,-0.02809 -0.196634,-0.04525 -0.257496,-0.05149 -0.06087,-0.0078 -0.106124,-0.01874 -0.137332,-0.03588 -0.02965,-0.01718 -0.07491,-0.06086 -0.137332,-0.13265 -0.06087,-0.07179 -0.115487,-0.143572 -0.163864,-0.213798 -0.04838,-0.07022 -0.09051,-0.140456 -0.126409,-0.210682 -0.03588,-0.07022 -0.06242,-0.138894 -0.07959,-0.207558 -0.01562,-0.06866 -0.0312,-0.171666 -0.04682,-0.310555 -0.01407,-0.137333 -0.02965,-0.305879 -0.0437,-0.502513 -0.01562,-0.198194 -0.02186,-0.514994 -0.02186,-0.951959 -0.0016,-0.436965 0.0062,-0.742843 0.02029,-0.917629 0.01407,-0.174785 0.02652,-0.308997 0.03899,-0.401068 0.01087,-0.09208 0.02186,-0.212244 0.0312,-0.362061 0.0078,-0.149816 0.01874,-0.265299 0.02965,-0.34801 0.01087,-0.08115 0.02497,-0.166984 0.04214,-0.254377 0.01562,-0.08739 0.03276,-0.220043 0.05151,-0.39951 0.01874,-0.179468 0.04058,-0.352697 0.06555,-0.522796 0.02497,-0.170105 0.04682,-0.305878 0.06399,-0.407313 0.01874,-0.102999 0.03588,-0.206 0.05151,-0.31056 0.01718,-0.106113 0.0312,-0.185713 0.04214,-0.24033 0.01087,-0.05462 0.02809,-0.117045 0.05149,-0.187271 0.02341,-0.07022 0.0437,-0.123289 0.06086,-0.160743 0.01874,-0.03744 0.04525,-0.08115 0.08115,-0.13265 0.03744,-0.04994 0.07179,-0.09052 0.106124,-0.117044 0.03276,-0.02809 0.06555,-0.04838 0.09987,-0.06086 0.03431,-0.01247 0.08115,-0.02029 0.142011,-0.02186 0.06086,-0.0016 0.106124,0.0016 0.135773,0.0078 0.0312,0.0062 0.06866,0.02029 0.113925,0.04058 0.04682,0.02029 0.0952,0.04994 0.146692,0.09052 0.05151,0.04058 0.107675,0.09363 0.171666,0.159177 0.06242,0.06555 0.112364,0.121727 0.149817,0.166984 0.03592,0.04525 0.08428,0.121727 0.143576,0.227844 0.05774,0.107687 0.113921,0.218486 0.166979,0.33241 0.05307,0.115483 0.101436,0.21848 0.145139,0.310555 0.04369,0.09208 0.08272,0.171666 0.118602,0.240334 0.03431,0.0671 0.07022,0.140452 0.106124,0.220042 0.03588,0.08115 0.07491,0.16074 0.120166,0.241893 0.04369,0.08115 0.08583,0.162301 0.126409,0.245011 0.04213,0.08272 0.07491,0.143573 0.102998,0.182589 0.02652,0.04058 0.07023,0.07959 0.131087,0.118607 0.06086,0.03743 0.115487,0.06555 0.160743,0.08272 0.04682,0.01718 0.08896,0.02497 0.12953,0.02341 0.04214,0 0.09207,-0.01247 0.154495,-0.03588 0.06087,-0.02341 0.112364,-0.05149 0.15606,-0.08427 0.04214,-0.03276 0.09831,-0.08739 0.168546,-0.162302 0.07023,-0.07647 0.124844,-0.143577 0.16074,-0.204438 0.03743,-0.05931 0.06398,-0.109238 0.08115,-0.148254 0.01562,-0.03904 0.03747,-0.107687 0.06398,-0.204442 0.02497,-0.09831 0.04525,-0.182588 0.05775,-0.252814 0.0125,-0.07179 0.02808,-0.143572 0.04838,-0.216919 0.01874,-0.07335 0.03904,-0.137336 0.06242,-0.190395 0.02186,-0.05462 0.04838,-0.127967 0.08115,-0.220042 0.0312,-0.09363 0.05462,-0.160743 0.07023,-0.201318 0.01718,-0.04214 0.04838,-0.107675 0.09363,-0.196635 0.04525,-0.09051 0.07959,-0.157619 0.106113,-0.201314 0.02497,-0.0437 0.04994,-0.0827 0.07491,-0.117044 0.02652,-0.03588 0.06399,-0.07335 0.115486,-0.117045 0.05149,-0.04214 0.09207,-0.07491 0.124847,-0.0952 0.03276,-0.01874 0.07959,-0.03904 0.138891,-0.05931 0.06087,-0.02029 0.132653,-0.03431 0.21536,-0.04058 0.08115,-0.0062 0.154503,-0.0078 0.215364,-0.0032 0.06242,0.0062 0.112364,0.01718 0.151379,0.03588 0.03904,0.0187 0.07491,0.04682 0.110801,0.08271 0.03431,0.03431 0.06866,0.07959 0.102998,0.134211 0.03431,0.05462 0.06555,0.110801 0.09363,0.166984 0.02652,0.05775 0.05306,0.12953 0.07803,0.218481 0.02497,0.08896 0.0437,0.176348 0.05931,0.263741 0.01562,0.08583 0.0312,0.168545 0.04838,0.248132 0.01718,0.07959 0.03592,0.18103 0.05307,0.305877 0.0187,0.124847 0.03744,0.284029 0.05618,0.480664 0.02029,0.196631 0.03276,0.382344 0.03588,0.56025 0.0046,0.176349 0.0078,0.3168 0.0094,0.42136 0.0016,0.104561 0.0032,0.33865 0.0032,0.700707 0,0.362057 -0.0046,0.627355 -0.01562,0.792776 -0.0094,0.165423 -0.01718,0.312119 -0.02186,0.441648 -0.0046,0.127971 -0.0062,0.245012 -0.0078,0.352696 0,0.106113 0,0.235647 -0.0016,0.388584 -0.0016,0.154499 -0.0016,0.302758 -0.0016,0.444772 0,0.143572 -0.0078,0.290268 -0.02186,0.438523 -0.01407,0.149816 -0.02965,0.254376 -0.04682,0.31368 -0.01718,0.06086 -0.04058,0.113925 -0.06866,0.162302 -0.02808,0.04838 -0.05774,0.09363 -0.09052,0.135769 -0.03276,0.04214 -0.06867,0.07491 -0.109238,0.101436 -0.04058,0.02652 -0.07803,0.04525 -0.112364,0.05774 -0.03431,0.01087 -0.117044,0.01562 -0.249694,0.01718 -0.134212,0 -0.23721,-0.0016 -0.310556,-0.0046 -0.07335,-0.0016 -0.123288,-0.0062 -0.151378,-0.01402 -0.02652,-0.0062 -0.06399,-0.02341 -0.109239,-0.0515 -0.04682,-0.02809 -0.08583,-0.05774 -0.118606,-0.08739 -0.0312,-0.0312 -0.06398,-0.0671 -0.09363,-0.107676 -0.0312,-0.04214 -0.05618,-0.08739 -0.07803,-0.13577 -0.02029,-0.04838 -0.03904,-0.117044 -0.05774,-0.204437 -0.01718,-0.08739 -0.02809,-0.162301 -0.03276,-0.224725 -0.0046,-0.06242 -0.0062,-0.241892 -0.0062,-0.541529 0,-0.298071 0,-0.47754 0.0016,-0.535281 0.0016,-0.0593 -0.0094,-0.09363 -0.03431,-0.101435 -0.02341,-0.0094 -0.05462,0.0016 -0.08895,0.03431 -0.03588,0.03276 -0.07491,0.05931 -0.118603,0.08272 -0.04214,0.02186 -0.102998,0.04369 -0.18103,0.06242 -0.07803,0.01874 -0.149817,0.04214 -0.215361,0.06866 -0.06555,0.02808 -0.124847,0.04994 -0.18103,0.06866 -0.05618,0.01718 -0.109239,0.03588 -0.160739,0.05462 -0.04994,0.0187 -0.0952,0.0312 -0.134213,0.03743 -0.03904,0.0078 -0.138893,0.01087 -0.301194,0.01087 -0.16074,0 -0.277784,-0.0032 -0.349573,-0.0094 -0.07179,-0.0046 -0.137331,-0.02029 -0.196631,-0.0437 -0.05774,-0.02497 -0.117044,-0.0593 -0.173227,-0.102998 -0.05775,-0.04525 -0.09676,-0.07335 -0.120165,-0.08739 -0.02341,-0.0125 -0.04994,-0.03276 -0.07959,-0.06086 -0.0312,-0.02809 -0.06242,-0.05307 -0.09363,-0.07335 -0.04682,-0.02965 -0.06555,-0.131089 -0.05618,-0.301193"
       id="path23128-2" />
    <path
       style="fill:none;stroke:#abcc7f;stroke-width:0.622862;stroke-linecap:round;stroke-linejoin:round;stroke-miterlimit:10;stroke-opacity:1"
       d="m 24.305764,32.232647 c 0.0094,-0.07959 0.02965,-0.156057 0.06398,-0.227845 0.02186,-0.04682 0.04525,-0.09208 0.06867,-0.132649 0.02341,-0.04214 0.05931,-0.0952 0.109238,-0.162302 0.04994,-0.06555 0.09052,-0.112364 0.121732,-0.142014 0.0312,-0.02965 0.07023,-0.05774 0.117041,-0.08739 0.04682,-0.02809 0.09051,-0.0515 0.134212,-0.07022 0.04214,-0.01874 0.104561,-0.04214 0.185708,-0.06866 0.08115,-0.02652 0.176348,-0.0593 0.28559,-0.09987 0.109238,-0.04058 0.198194,-0.07335 0.263741,-0.09519 0.0671,-0.02341 0.140452,-0.03904 0.221601,-0.04525 0.07959,-0.0062 0.159181,-0.0078 0.234089,0 0.07647,0.0062 0.149817,0.01718 0.220043,0.03588 0.06867,0.01718 0.134211,0.03744 0.193515,0.05931 0.0593,0.02186 0.110801,0.04369 0.151375,0.0671 0.04214,0.02186 0.09676,0.05931 0.165421,0.107687 0.06867,0.04994 0.124851,0.0952 0.168546,0.137335 0.0437,0.04214 0.09052,0.09207 0.138894,0.149817 0.04994,0.05774 0.09831,0.118602 0.146696,0.184146 0.04838,0.06555 0.0952,0.126409 0.142009,0.182589 0.04682,0.05618 0.113926,0.134211 0.206,0.230969 0.09052,0.09832 0.156062,0.173228 0.196636,0.226287 0.04058,0.05149 0.07648,0.104561 0.106124,0.159181 0.02965,0.05462 0.06399,0.124844 0.102998,0.213798 0.03744,0.08739 0.09208,0.232527 0.165422,0.433846 0.07179,0.199754 0.137331,0.369858 0.196635,0.507191 0.05931,0.138893 0.101436,0.249694 0.124847,0.330846 0.02341,0.08115 0.04525,0.170104 0.06086,0.265299 0.01718,0.09363 0.0312,0.179469 0.04058,0.254377 0.0094,0.07491 0.01874,0.160739 0.02652,0.259059 0.0062,0.09831 0.01087,0.249694 0.0125,0.45257 0,0.202875 0,0.327722 -0.0016,0.371421 -0.0016,0.04525 -0.01406,0.131087 -0.03904,0.255935 -0.02341,0.126409 -0.04994,0.234089 -0.07803,0.321482 -0.02809,0.08739 -0.06866,0.188833 -0.120169,0.304315 -0.04993,0.113925 -0.0952,0.204439 -0.131088,0.271544 -0.03744,0.06555 -0.07491,0.126409 -0.112364,0.182589 -0.03744,0.05618 -0.07803,0.110801 -0.118603,0.162301 -0.04058,0.04994 -0.09052,0.104561 -0.146696,0.162301 -0.05618,0.05618 -0.113924,0.109239 -0.173228,0.157619 -0.05931,0.04838 -0.118603,0.0952 -0.177906,0.140456 -0.05775,0.04369 -0.123285,0.08896 -0.195074,0.137331 -0.07022,0.04838 -0.13733,0.08739 -0.198196,0.117046 -0.06086,0.0312 -0.13265,0.06086 -0.21536,0.08739 -0.08115,0.02808 -0.18415,0.05306 -0.305874,0.07491 -0.123288,0.02341 -0.246574,0.04058 -0.369863,0.05306 -0.123285,0.01402 -0.223162,0.02186 -0.299632,0.02652 -0.07646,0.0046 -0.16386,0.0062 -0.259056,0.0062 -0.09676,-0.0016 -0.188833,-0.02029 -0.277787,-0.05774 -0.08896,-0.03744 -0.176345,-0.07648 -0.26218,-0.120165 -0.08583,-0.04214 -0.156057,-0.07959 -0.210678,-0.109238 -0.05618,-0.0312 -0.09676,-0.05618 -0.121727,-0.07491 -0.02652,-0.0187 -0.05775,-0.04682 -0.09363,-0.08583 -0.03592,-0.03904 -0.06711,-0.07803 -0.0952,-0.117045 -0.02965,-0.03904 -0.06086,-0.09208 -0.09363,-0.157623 -0.03431,-0.06555 -0.06866,-0.13889 -0.104561,-0.220038 -0.05149,-0.120165 -0.101436,-0.276226 -0.146696,-0.465059"
       id="path23130-6" />
    <path
       style="fill:none;stroke:#abcc7f;stroke-width:0.622862;stroke-linecap:round;stroke-linejoin:round;stroke-miterlimit:10;stroke-opacity:1"
       d="m 25.733707,33.335984 c -0.07646,0.09988 -0.146697,0.190395 -0.210681,0.268423 -0.04369,0.0515 -0.07335,0.09207 -0.08739,0.118608 -0.01407,0.02809 -0.02965,0.07335 -0.04994,0.134207 -0.02029,0.06243 -0.04213,0.157623 -0.06555,0.288711 -0.02497,0.131091 -0.03899,0.251256 -0.0437,0.360498 -0.0046,0.110801 -0.01087,0.230966 -0.01874,0.363614 -0.0078,0.131092 -0.0125,0.23721 -0.0125,0.315243 -0.0016,0.07803 0.0046,0.146693 0.01874,0.202876 0.01247,0.05774 0.02965,0.112364 0.04838,0.165421 0.02029,0.05306 0.03744,0.0952 0.05462,0.127967 0.01562,0.03276 0.04214,0.07646 0.07804,0.127968 0.03588,0.0515 0.07335,0.09676 0.110801,0.132653 0.03744,0.03743 0.07491,0.06711 0.112364,0.09208 0.03588,0.02497 0.06866,0.04369 0.09987,0.05618 0.02965,0.0125 0.06866,0.02341 0.117045,0.0312 0.04682,0.0078 0.09363,0.01247 0.140451,0.01402 0.04525,0 0.09208,-0.0078 0.138894,-0.02652 0.04682,-0.01718 0.08583,-0.03744 0.117045,-0.05774 0.03276,-0.02029 0.07179,-0.0515 0.120165,-0.09051 0.04838,-0.04058 0.08896,-0.08115 0.124847,-0.120169 0.03431,-0.03904 0.07646,-0.101435 0.126409,-0.187267 0.04993,-0.08584 0.08583,-0.154503 0.107687,-0.204438 0.02186,-0.04994 0.04369,-0.106124 0.06398,-0.168546 0.02029,-0.06242 0.03588,-0.124847 0.0437,-0.18415 0.0094,-0.06086 0.01406,-0.152937 0.01406,-0.277784 0.0016,-0.124847 -0.0094,-0.255938 -0.02965,-0.394828 -0.02029,-0.138894 -0.03899,-0.245013 -0.05462,-0.318363 -0.01402,-0.07335 -0.03431,-0.151379 -0.05775,-0.234089 -0.02497,-0.08115 -0.04369,-0.138889 -0.05774,-0.171665 -0.01407,-0.0312 -0.03276,-0.06242 -0.05618,-0.09363 -0.02186,-0.02965 -0.05462,-0.06555 -0.09832,-0.106113 -0.04214,-0.04214 -0.0749,-0.07491 -0.09831,-0.102998 -0.02186,-0.02652 -0.04838,-0.05149 -0.07646,-0.07335 -0.02809,-0.02186 -0.07023,-0.03904 -0.124847,-0.05149 -0.07803,-0.01718 -0.251253,-0.0125 -0.519676,0.01562"
       id="path23132-1" />
    <path
       style="fill:none;stroke:#abcc7f;stroke-width:0.622862;stroke-linecap:round;stroke-linejoin:round;stroke-miterlimit:10;stroke-opacity:1"
       d="m 27.224071,31.545987 c 0.08895,-0.04525 0.198193,-0.08115 0.324601,-0.107675 0.08272,-0.01718 0.171666,-0.03276 0.263742,-0.04525 0.09207,-0.01247 0.170104,-0.02965 0.235648,-0.04994 0.06711,-0.02029 0.115481,-0.03431 0.148254,-0.04058 0.03276,-0.0062 0.08272,-0.0094 0.15294,-0.0078 0.07023,0.0016 0.145134,0.0094 0.226284,0.02652 0.08115,0.01562 0.163863,0.04682 0.248131,0.08896 0.08428,0.0437 0.145139,0.07803 0.184155,0.101435 0.03744,0.02341 0.08739,0.0671 0.151375,0.131087 0.06398,0.06555 0.120165,0.12953 0.170108,0.193516 0.04993,0.06398 0.0952,0.129525 0.137331,0.198193 0.04213,0.06867 0.07959,0.12641 0.112364,0.171665 0.03276,0.04525 0.06399,0.09987 0.09208,0.16074 0.02652,0.06087 0.04838,0.113924 0.06555,0.160743 0.01562,0.04682 0.03743,0.13265 0.0671,0.257497 0.02965,0.124847 0.06243,0.262179 0.09987,0.410434 0.03747,0.148258 0.06398,0.26062 0.08272,0.333967 0.01874,0.07491 0.04213,0.145134 0.07023,0.213801 0.02808,0.06866 0.04994,0.131092 0.06711,0.187272 0.01718,0.05618 0.03431,0.124847 0.04994,0.207558 0.01562,0.08272 0.03588,0.165421 0.05775,0.249694 0.02186,0.08428 0.04525,0.163863 0.07022,0.238772 0.02497,0.07335 0.04994,0.140451 0.07491,0.198192 0.02497,0.05774 0.05462,0.117046 0.08583,0.176349 0.0312,0.06086 0.06866,0.113924 0.113921,0.162301 0.04525,0.04682 0.08583,0.07647 0.124847,0.08896 0.03744,0.01407 0.07179,0.01874 0.101436,0.01718 0.0312,-0.0016 0.06087,-0.02341 0.09208,-0.06398 0.02965,-0.04214 0.05462,-0.08428 0.07335,-0.12953 0.01718,-0.04369 0.04058,-0.113924 0.06711,-0.20912 0.02652,-0.0952 0.05306,-0.210677 0.07646,-0.34489 0.02497,-0.135773 0.04525,-0.260617 0.06242,-0.377661 0.01718,-0.115486 0.03743,-0.265303 0.05931,-0.451011 0.02341,-0.184152 0.03744,-0.308999 0.04525,-0.376104 0.0062,-0.06711 0.01562,-0.159177 0.02341,-0.279343 0.0094,-0.12173 0.0187,-0.224724 0.02652,-0.310559 0.0094,-0.08583 0.01562,-0.163864 0.01873,-0.232528 0.0032,-0.07022 0.01087,-0.179467 0.02341,-0.327726 0.01247,-0.149817 0.02652,-0.249694 0.03904,-0.301191 0.01247,-0.05307 0.03276,-0.106124 0.05931,-0.162301 0.02652,-0.05618 0.0671,-0.104561 0.120164,-0.145139 0.05306,-0.03904 0.102999,-0.07491 0.149817,-0.102998 0.04682,-0.02809 0.09832,-0.05462 0.156057,-0.07646 0.05775,-0.02186 0.101436,-0.04058 0.131092,-0.05462 0.02965,-0.01558 0.0593,-0.02808 0.09051,-0.03744 0.02965,-0.0094 0.09676,-0.01562 0.198197,-0.01718 0.101436,-0.0032 0.232524,-0.0032 0.390147,-0.0032 0.157618,0.0016 0.259054,0.0032 0.301191,0.0046 0.04214,0.0016 0.117044,0.0094 0.221604,0.02186 0.106124,0.01402 0.177907,0.02497 0.218485,0.03431 0.03899,0.0094 0.07491,0.02497 0.107675,0.04682 0.03276,0.02186 0.06086,0.05306 0.08739,0.0952 0.02652,0.04214 0.04838,0.08583 0.06398,0.131091 0.01562,0.04525 0.02497,0.08428 0.0312,0.117046 0.0062,0.03276 0.0094,0.09832 0.0094,0.198193 0.0016,0.09832 -0.0046,0.198197 -0.01874,0.301195 -0.0125,0.101436 -0.02341,0.173224 -0.03276,0.21536 -0.0094,0.04058 -0.02809,0.146697 -0.05462,0.318363 -0.02497,0.170104 -0.04682,0.307435 -0.06086,0.411995 -0.01562,0.102999 -0.02965,0.18727 -0.0437,0.252814 -0.01406,0.06711 -0.03588,0.148259 -0.06555,0.245013 -0.0312,0.09832 -0.05931,0.18415 -0.08428,0.2575 -0.02652,0.07491 -0.06866,0.209117 -0.129528,0.404193 -0.06086,0.193511 -0.107676,0.349568 -0.142014,0.463494 -0.03276,0.115486 -0.06555,0.215363 -0.09676,0.299632 -0.02965,0.08427 -0.0593,0.160743 -0.08427,0.226287 -0.02652,0.06711 -0.05307,0.154499 -0.07959,0.265299 -0.02652,0.109238 -0.05462,0.243451 -0.08428,0.401073 -0.02965,0.157619 -0.04838,0.265299 -0.05618,0.323041 -0.0078,0.05774 -0.02341,0.127967 -0.0437,0.213802 -0.02186,0.08583 -0.04525,0.202876 -0.07179,0.351135 -0.02652,0.149816 -0.05462,0.282465 -0.08427,0.397948 -0.02965,0.117044 -0.05307,0.206 -0.07023,0.26842 -0.01718,0.06086 -0.03904,0.112363 -0.06242,0.15294 -0.02497,0.03904 -0.04683,0.07179 -0.06398,0.09363 -0.01874,0.02341 -0.05775,0.0515 -0.117045,0.08739 -0.06087,0.03588 -0.109238,0.06866 -0.148255,0.09988 -0.03904,0.02965 -0.07179,0.04994 -0.09832,0.06242 -0.02652,0.01087 -0.09051,0.02341 -0.193511,0.03904 -0.101436,0.01562 -0.182589,0.02809 -0.243454,0.04058 -0.05931,0.01087 -0.145135,0.02186 -0.254376,0.03276 -0.109239,0.01087 -0.213803,0.01874 -0.31368,0.02341 -0.09987,0.0032 -0.226283,0.0062 -0.377662,0.0078 -0.149817,0.0016 -0.251257,0 -0.302754,-0.0046 -0.0515,-0.0046 -0.157618,-0.02965 -0.319924,-0.07646 -0.16074,-0.04525 -0.273101,-0.08115 -0.333962,-0.106112 -0.06242,-0.02497 -0.124848,-0.05462 -0.185713,-0.08896 -0.05931,-0.03431 -0.129526,-0.08896 -0.205996,-0.166983 -0.07803,-0.07646 -0.140452,-0.148259 -0.187271,-0.213803 -0.04838,-0.06555 -0.0952,-0.142014 -0.140453,-0.230964 -0.04526,-0.08896 -0.08739,-0.177907 -0.126408,-0.268424 -0.03904,-0.08896 -0.07179,-0.160739 -0.09832,-0.21536 -0.02808,-0.05462 -0.05149,-0.09832 -0.07179,-0.131092 -0.0312,-0.04838 -0.06555,-0.134211 -0.107687,-0.257496"
       id="path23134-8" />
    <path
       style="fill:none;stroke:#abcc7f;stroke-width:0.622862;stroke-linecap:round;stroke-linejoin:round;stroke-miterlimit:10;stroke-opacity:1"
       d="m 33.538219,33.546666 c -0.05618,0.117044 -0.09832,0.223167 -0.127967,0.318363 -0.02029,0.06242 -0.04525,0.173224 -0.07491,0.329284 -0.02965,0.156057 -0.0515,0.273101 -0.06398,0.349573 -0.01407,0.0749 -0.02809,0.181025 -0.0437,0.3168 -0.01562,0.137331 -0.02652,0.305873 -0.03276,0.508749 -0.0062,0.204437 -0.0094,0.376103 -0.0078,0.514997 0.0016,0.140452 0.0078,0.241892 0.02029,0.304316 0.01247,0.06242 0.02652,0.120164 0.04369,0.174785 0.01718,0.05462 0.03588,0.106113 0.05774,0.154499 0.02029,0.04682 0.06867,0.13889 0.140453,0.274664 0.07335,0.13577 0.121726,0.223163 0.145138,0.2653 0.02341,0.04058 0.04838,0.08115 0.07491,0.117044 0.02497,0.03744 0.06867,0.08739 0.131088,0.146696 0.06242,0.06086 0.132653,0.120165 0.210681,0.176344 0.07803,0.05774 0.162302,0.104561 0.254377,0.142014 0.09207,0.03904 0.163859,0.06555 0.21536,0.08272 0.0515,0.01718 0.106124,0.03431 0.162302,0.04838 0.05618,0.01558 0.113924,0.02652 0.173224,0.03431 0.06087,0.0094 0.138894,0.01402 0.238771,0.01874 0.09832,0.0032 0.179468,0.0046 0.24345,0.0046 0.06243,0 0.145138,0.0016 0.249698,0.0046 0.102999,0.0032 0.182589,0.0032 0.23721,0.0016 0.05462,-0.0032 0.112364,-0.0094 0.170103,-0.01718 0.05775,-0.0078 0.109238,-0.01718 0.152937,-0.02965 0.0437,-0.01087 0.09208,-0.02652 0.143573,-0.04525 0.0515,-0.02029 0.131091,-0.05462 0.237213,-0.106113 0.106112,-0.04994 0.179465,-0.08896 0.221601,-0.117044 0.04214,-0.02809 0.07959,-0.05774 0.112364,-0.09051 0.03431,-0.0312 0.07803,-0.08272 0.131088,-0.156062 0.05306,-0.07179 0.09363,-0.13265 0.123284,-0.182588 0.02809,-0.04994 0.07024,-0.131092 0.12641,-0.245016 0.05462,-0.112353 0.09208,-0.195073 0.109238,-0.248133 0.01718,-0.05306 0.02965,-0.104561 0.03431,-0.152937 0.0062,-0.04838 0.0062,-0.113924 0.0046,-0.193514 -0.0032,-0.07959 -0.0078,-0.13577 -0.01718,-0.168541 -0.0078,-0.03276 -0.02186,-0.07179 -0.04525,-0.113926 -0.02186,-0.04369 -0.04525,-0.08427 -0.07179,-0.123284 -0.02497,-0.03744 -0.05618,-0.07335 -0.0952,-0.109238 -0.03743,-0.03588 -0.08583,-0.07022 -0.142014,-0.102999 -0.05618,-0.03276 -0.107676,-0.05307 -0.151379,-0.05931 -0.04525,-0.0078 -0.09832,-0.0094 -0.160739,-0.0046 -0.06242,0.0032 -0.121728,0.01247 -0.177906,0.02808 -0.05618,0.01562 -0.127968,0.0437 -0.215365,0.08272 -0.08896,0.03904 -0.177906,0.0827 -0.268419,0.131091 -0.09052,0.04838 -0.166983,0.09363 -0.227846,0.134212 -0.06243,0.04058 -0.112363,0.06555 -0.149815,0.07491 -0.03743,0.0094 -0.09208,0.01402 -0.165422,0.01562 -0.07491,0 -0.12017,-0.0046 -0.138894,-0.01247 -0.02029,-0.0078 -0.05306,-0.03904 -0.09988,-0.09676 -0.04682,-0.05618 -0.08427,-0.106124 -0.113921,-0.146696 -0.02808,-0.03904 -0.05462,-0.08583 -0.07646,-0.13577 -0.02341,-0.04994 -0.04682,-0.117045 -0.07335,-0.199756 -0.02497,-0.08272 -0.03904,-0.170107 -0.04369,-0.262179 -0.0032,-0.09207 0.0032,-0.157619 0.01874,-0.196635 0.01718,-0.03904 0.03744,-0.07335 0.06242,-0.102998 0.02341,-0.0312 0.04994,-0.05618 0.07959,-0.07803 0.02808,-0.02029 0.05618,-0.03747 0.08739,-0.0515 0.02965,-0.01247 0.07803,-0.02341 0.145134,-0.02809 0.06711,-0.0062 0.13577,-0.0094 0.20912,-0.0078 0.07335,0 0.146697,0.0094 0.220043,0.02497 0.07179,0.01562 0.12953,0.02652 0.168542,0.02965 0.03904,0.0046 0.08583,0.01407 0.140451,0.02652 0.05307,0.01407 0.101436,0.02186 0.142019,0.02652 0.04058,0.0046 0.09207,0.0062 0.152936,0.0062 0.0593,0 0.112364,-0.0125 0.15762,-0.04058 0.04525,-0.02652 0.08583,-0.06086 0.123284,-0.101436 0.03588,-0.04058 0.07491,-0.0952 0.113925,-0.163863 0.03743,-0.07022 0.06866,-0.127967 0.09052,-0.173224 0.02186,-0.04525 0.03904,-0.09519 0.05462,-0.149817 0.01406,-0.05306 0.02186,-0.110801 0.02341,-0.171665 0,-0.0593 -0.0125,-0.120165 -0.03904,-0.182589 -0.02652,-0.06242 -0.05462,-0.112364 -0.08272,-0.149817 -0.02809,-0.03588 -0.05931,-0.06398 -0.09363,-0.08427 -0.03588,-0.02029 -0.08739,-0.03904 -0.156058,-0.05462 -0.06711,-0.01718 -0.138893,-0.02497 -0.210681,-0.02186 -0.07335,0.0016 -0.154495,0.0125 -0.245012,0.03276 -0.09051,0.02186 -0.171666,0.03743 -0.241892,0.04838 -0.07023,0.0125 -0.129526,0.02341 -0.176348,0.03588 -0.04838,0.01087 -0.09832,0.01718 -0.151375,0.02029 -0.05306,0.0016 -0.106124,-0.0062 -0.159181,-0.02186 -0.05306,-0.01718 -0.08896,-0.03904 -0.107676,-0.06555 -0.01874,-0.02652 -0.03588,-0.06242 -0.04994,-0.106124 -0.01402,-0.04525 -0.02341,-0.09208 -0.02809,-0.143572 -0.0046,-0.04994 -0.0078,-0.09832 -0.0078,-0.143576 0,-0.04682 0.0078,-0.09987 0.02186,-0.16074 0.01402,-0.06086 0.02965,-0.107687 0.04838,-0.140456 0.01874,-0.03431 0.05462,-0.07646 0.107687,-0.126405 0.05306,-0.05151 0.09987,-0.09051 0.140452,-0.117045 0.04214,-0.02809 0.07647,-0.04682 0.106113,-0.05774 0.02965,-0.0125 0.07022,-0.02341 0.121727,-0.03276 0.05306,-0.0094 0.126409,-0.01562 0.220043,-0.01874 0.0952,-0.0032 0.174785,-0.0046 0.241891,-0.0046 0.06555,0 0.120169,0.0062 0.162301,0.01718 0.0437,0.01247 0.09051,0.02965 0.143576,0.05462 0.05462,0.02341 0.101436,0.04526 0.143573,0.06711 0.04058,0.02186 0.09363,0.04214 0.159181,0.06086 0.06398,0.02029 0.123289,0.02965 0.176349,0.0312 0.05306,0 0.101435,-0.0046 0.148254,-0.01402 0.04525,-0.0094 0.09051,-0.02497 0.134211,-0.04525 0.04525,-0.02186 0.09363,-0.05775 0.145135,-0.107687 0.04994,-0.05149 0.08739,-0.09832 0.109238,-0.140452 0.02186,-0.0437 0.03743,-0.08271 0.04525,-0.118606 0.0094,-0.03588 0.01247,-0.07803 0.01087,-0.126406 -0.0032,-0.04838 -0.01718,-0.102998 -0.04525,-0.160739 -0.02653,-0.05931 -0.07959,-0.134212 -0.154503,-0.224725 -0.07646,-0.09052 -0.132649,-0.159181 -0.166979,-0.204438 -0.03591,-0.04682 -0.08427,-0.106124 -0.146697,-0.174789 -0.06087,-0.07023 -0.124847,-0.126406 -0.188832,-0.168543 -0.06398,-0.04214 -0.112364,-0.07179 -0.143572,-0.08739 -0.02965,-0.01718 -0.07491,-0.03431 -0.135775,-0.05151 -0.0593,-0.0187 -0.126405,-0.02965 -0.199755,-0.03431 -0.07335,-0.0046 -0.282466,-0.0062 -0.624236,-0.0078 -0.343331,0 -0.543082,0.0046 -0.599266,0.01247 -0.05462,0.0078 -0.121726,0.02341 -0.201313,0.04682 -0.07804,0.02341 -0.143577,0.04525 -0.196639,0.06555 -0.05306,0.0187 -0.110801,0.04369 -0.173224,0.07179 -0.06086,0.02965 -0.118604,0.06086 -0.171666,0.09676 -0.05306,0.03588 -0.110801,0.08272 -0.174782,0.140457 -0.06243,0.05931 -0.115487,0.104561 -0.159182,0.13889 -0.04214,0.03431 -0.08272,0.06866 -0.120164,0.102998 -0.05462,0.04993 -0.09988,0.107675 -0.132654,0.174786"
       id="path23136-7" />
    <path
       style="fill:none;stroke:#abcc7f;stroke-width:0.622862;stroke-linecap:round;stroke-linejoin:round;stroke-miterlimit:10;stroke-opacity:1"
       d="m 40.245636,32.050058 c -0.0078,-0.06866 -0.02652,-0.131087 -0.05306,-0.18727 -0.01874,-0.03744 -0.0437,-0.07959 -0.07491,-0.123285 -0.0312,-0.04525 -0.06867,-0.09052 -0.113924,-0.137332 -0.04369,-0.04682 -0.0952,-0.09363 -0.151375,-0.138894 -0.05618,-0.04525 -0.09832,-0.07803 -0.126409,-0.09676 -0.02808,-0.0187 -0.08583,-0.04369 -0.174786,-0.07491 -0.08895,-0.02965 -0.159181,-0.05149 -0.20912,-0.06555 -0.04994,-0.01247 -0.101435,-0.02186 -0.154495,-0.02809 -0.05151,-0.0078 -0.127972,-0.01247 -0.229412,-0.01718 -0.102998,-0.0032 -0.215359,-0.01087 -0.338648,-0.02186 -0.121724,-0.01087 -0.251253,-0.01562 -0.388585,-0.01562 -0.135773,0 -0.226286,0.0046 -0.268423,0.01562 -0.04369,0.01087 -0.101436,0.03431 -0.176344,0.06711 -0.07491,0.03276 -0.137332,0.06399 -0.190391,0.0952 -0.05151,0.02965 -0.09363,0.05306 -0.127972,0.07023 -0.04838,0.02341 -0.107675,0.09363 -0.179467,0.209117"
       id="path23138-9" />
    <path
       style="fill:none;stroke:#abcc7f;stroke-width:0.622862;stroke-linecap:round;stroke-linejoin:round;stroke-miterlimit:10;stroke-opacity:1"
       d="m 36.628189,32.963005 c 0,0.07022 0.0078,0.143576 0.02186,0.218484 0.02186,0.107676 0.09988,0.230969 0.23253,0.365177"
       id="path23140-2" />
    <path
       style="fill:none;stroke:#abcc7f;stroke-width:0.622862;stroke-linecap:round;stroke-linejoin:round;stroke-miterlimit:10;stroke-opacity:1"
       d="m 40.131715,32.089075 c 0.08739,0.08896 0.143572,0.146696 0.166979,0.17791 0.01718,0.02186 0.0312,0.04682 0.0437,0.0749 0.01087,0.02965 0.02341,0.07959 0.03431,0.151375 0.01087,0.07179 0.01562,0.171666 0.01407,0.298075 0,0.126405 -0.0094,0.223163 -0.02652,0.293389 -0.01874,0.06866 -0.04214,0.124847 -0.06866,0.165422 -0.02808,0.04058 -0.06866,0.08739 -0.121727,0.138894 -0.05306,0.04994 -0.09987,0.08739 -0.13889,0.107675 -0.04058,0.02186 -0.07804,0.03588 -0.112364,0.04369 -0.03588,0.0062 -0.112352,0.0094 -0.227844,0.0094 -0.115482,0.0016 -0.204438,-0.0078 -0.266861,-0.02497 -0.06242,-0.01718 -0.123286,-0.02809 -0.184147,-0.0312 -0.06087,-0.0032 -0.132654,-0.01402 -0.215364,-0.0312 -0.08115,-0.01874 -0.143573,-0.03431 -0.184151,-0.04682 -0.04058,-0.01087 -0.08739,-0.0187 -0.13889,-0.02029 -0.0515,-0.0016 -0.09207,0.0062 -0.121727,0.02341 -0.02809,0.01718 -0.07023,0.05462 -0.124847,0.112364 -0.05462,0.05618 -0.08583,0.10455 -0.09207,0.14201 -0.0078,0.03744 -0.01087,0.08896 -0.01087,0.152941 0,0.06555 0.0062,0.124847 0.02029,0.177906 0.01407,0.05151 0.0312,0.102998 0.05149,0.152937 0.02029,0.04838 0.04682,0.09676 0.07646,0.145139 0.02965,0.04682 0.08896,0.107675 0.176344,0.182588 0.08739,0.07335 0.166984,0.121723 0.240334,0.140451 0.07335,0.02029 0.145134,0.04369 0.216922,0.07335 0.07179,0.02965 0.138889,0.05307 0.199755,0.07022 0.06086,0.01718 0.131088,0.04058 0.210678,0.06867 0.07959,0.02965 0.138895,0.05462 0.179469,0.07491 0.04058,0.02029 0.07959,0.04369 0.120164,0.07023 0.04058,0.02809 0.08739,0.06555 0.140453,0.113925 0.05307,0.04838 0.109238,0.09363 0.168546,0.137332 0.06087,0.04369 0.110801,0.09051 0.154498,0.140451 0.04214,0.04994 0.08739,0.115483 0.134212,0.193516 0.04682,0.07803 0.09208,0.162297 0.132649,0.252811 0.04058,0.08895 0.07959,0.199759 0.115483,0.330847 0.03431,0.131091 0.05775,0.226286 0.06867,0.287148 0.01087,0.06086 0.01718,0.131092 0.01873,0.21224 0.0032,0.08272 -0.0046,0.166988 -0.02029,0.252819 -0.01718,0.08739 -0.05149,0.199755 -0.102998,0.338645 -0.0515,0.137332 -0.08896,0.227849 -0.112364,0.269981 -0.02341,0.04214 -0.0515,0.08115 -0.08427,0.118607 -0.03431,0.03744 -0.07335,0.07179 -0.12173,0.106113 -0.04682,0.03431 -0.137333,0.08428 -0.274665,0.151379 -0.135769,0.06711 -0.246574,0.117045 -0.333967,0.148255 -0.08583,0.0312 -0.213798,0.07335 -0.385464,0.123289 -0.170104,0.0515 -0.302753,0.08428 -0.396391,0.09987 -0.09363,0.01562 -0.201317,0.02965 -0.323041,0.04369 -0.121726,0.0125 -0.249694,0.01874 -0.385467,0.02029 -0.13577,0 -0.234085,-0.0032 -0.298071,-0.0078 -0.06242,-0.0046 -0.151379,-0.02497 -0.268423,-0.05931 -0.115483,-0.03431 -0.196632,-0.06399 -0.245013,-0.08583 -0.04682,-0.02341 -0.09832,-0.05462 -0.152937,-0.09363 -0.05462,-0.03904 -0.09676,-0.0749 -0.127967,-0.106124 -0.0312,-0.0312 -0.07335,-0.08272 -0.129529,-0.152937 -0.08896,-0.113924 -0.138894,-0.195073 -0.151379,-0.245011"
       id="path23142-0" />
    <path
       style="fill:none;stroke:#abcc7f;stroke-width:0.622862;stroke-linecap:round;stroke-linejoin:round;stroke-miterlimit:10;stroke-opacity:1"
       d="m 37.321088,35.670629 c 0.152937,-0.0078 0.262183,-0.0062 0.329285,0.0032 0.04682,0.0062 0.09208,0.01718 0.137336,0.02965 0.04682,0.01247 0.09987,0.02497 0.163859,0.03744 0.06398,0.01247 0.137332,0.05149 0.220043,0.120164 0.08428,0.07023 0.145134,0.126406 0.181026,0.171663 0.03747,0.04525 0.06867,0.0952 0.09363,0.149817 0.02497,0.05462 0.0437,0.107686 0.05618,0.157623 0.01247,0.04994 0.0187,0.0952 0.0187,0.135769 0,0.04214 -0.01087,0.08272 -0.03276,0.121726 -0.02186,0.03904 -0.07179,0.07803 -0.148259,0.115483 -0.07646,0.03744 -0.166979,0.06867 -0.273101,0.0952 -0.104561,0.02652 -0.188833,0.04058 -0.249694,0.04214 -0.06086,0.0032 -0.123286,-0.0032 -0.18571,-0.01562 -0.102998,-0.02029 -0.170107,-0.03744 -0.204437,-0.04994"
       id="path23144-2" />
    <path
       style="fill:none;stroke:#abcc7f;stroke-width:0.622862;stroke-linecap:round;stroke-linejoin:round;stroke-miterlimit:10;stroke-opacity:1"
       d="m 37.065153,35.236785 c -0.03588,0.01718 -0.08895,0.0032 -0.157618,-0.04214 -0.04527,-0.0312 -0.07959,-0.06555 -0.104562,-0.102998 -0.03431,-0.05306 -0.06867,-0.179469 -0.102998,-0.376105"
       id="path23146-3" />
    <path
       style="fill:none;stroke:#abcc7f;stroke-width:0.962601;stroke-linecap:round;stroke-linejoin:round;stroke-miterlimit:10;stroke-opacity:1"
       d="m 15.36202,12.20247 v 3.466071"
       id="path23148-7" />
    <path
       style="fill:none;stroke:#abcc7f;stroke-width:0.962601;stroke-linecap:round;stroke-linejoin:round;stroke-miterlimit:10;stroke-opacity:1"
       d="m 15.441611,12.12444 h 3.369316"
       id="path23150-5" />
    <path
       style="fill:none;stroke:#abcc7f;stroke-width:0.972058;stroke-linecap:round;stroke-linejoin:round;stroke-miterlimit:10;stroke-opacity:1"
       d="M 43.945797,40.122994 V 36.622589"
       id="path23152-9" />
    <path
       style="fill:none;stroke:#abcc7f;stroke-width:0.972058;stroke-linecap:round;stroke-linejoin:round;stroke-miterlimit:10;stroke-opacity:1"
       d="M 43.864645,40.201027 H 40.462558"
       id="path23154-2" />
  </g>
</svg>
