<?xml version="1.0" encoding="UTF-8" standalone="no"?>
<!-- Created with Inkscape (http://www.inkscape.org/) -->

<svg
   width="107.71654pt"
   height="107.71654pt"
   viewBox="0 0 38.000001 38.000001"
   version="1.1"
   id="svg1"
   inkscape:version="1.2.2 (b0a8486541, 2022-12-01)"
   sodipodi:docname="Niemand macht bei Unterricht mit.svg"
   inkscape:export-filename="Anton ZzZz.svg"
   inkscape:export-xdpi="96"
   inkscape:export-ydpi="96"
   xmlns:inkscape="http://www.inkscape.org/namespaces/inkscape"
   xmlns:sodipodi="http://sodipodi.sourceforge.net/DTD/sodipodi-0.dtd"
   xmlns="http://www.w3.org/2000/svg"
   xmlns:svg="http://www.w3.org/2000/svg">
  <sodipodi:namedview
     id="namedview1"
     pagecolor="#f7f6e7"
     bordercolor="#000000"
     borderopacity="0.25"
     inkscape:showpageshadow="2"
     inkscape:pageopacity="0.0"
     inkscape:pagecheckerboard="0"
     inkscape:deskcolor="#d1d1d1"
     inkscape:document-units="mm"
     inkscape:zoom="4"
     inkscape:cx="63.125"
     inkscape:cy="64"
     inkscape:window-width="1920"
     inkscape:window-height="1011"
     inkscape:window-x="0"
     inkscape:window-y="0"
     inkscape:window-maximized="1"
     inkscape:current-layer="layer1"
     inkscape:export-bgcolor="#f7f6e7ff"
     showgrid="false" />
  <defs
     id="defs1" />
  <g
     inkscape:label="Layer 1"
     inkscape:groupmode="layer"
     id="layer1"
     transform="translate(-10.576749,-6.7235426)">
    <rect
       style="fill:#fff4ec;fill-opacity:1;stroke-width:0.239922"
       id="rect1-5"
       width="38"
       height="38"
       x="10.576749"
       y="6.7235427"
       inkscape:label="rect1" />
    <path
       style="fill:#c7993d;fill-opacity:0.501961;stroke:#db3939;stroke-width:0"
       d="m 10.576752,37.029154 c 1.317996,-1.285785 4.01285,-0.695957 4.01285,-0.695957 3.866155,-0.857042 9.153401,-0.811777 9.153401,-0.811777 3.464755,0.05742 9.983137,0.611424 9.983137,0.611424 0.162303,-0.08809 10.404999,-0.607556 12.130582,-0.555486 2.106055,0.05152 2.720024,0.817939 2.720024,0.817939 v 8.328247 H 10.576752 Z"
       id="path24570"
       sodipodi:nodetypes="ccccccccc" />
    <path
       style="fill:none;stroke:#c5c5c5;stroke-width:0.991473;stroke-linecap:round;stroke-linejoin:round;stroke-miterlimit:10;stroke-opacity:1"
       d="m 14.719942,14.669301 c -0.08157,0.79129 -0.02902,1.587541 -0.04425,2.381137 0.07415,0.149825 0.104362,-0.17802 0.146337,-0.235696 0.212966,-0.508045 0.289907,-1.088369 0.653477,-1.5204 0.266813,-0.379642 0.584379,-0.765915 1.038963,-0.909647 0.255319,-0.09721 0.553315,-0.185709 0.81614,-0.07056 0.21189,0.150072 0.175047,0.441805 0.180455,0.670684 0.01807,0.67359 0.0032,1.348237 -0.04623,2.019963 0.0016,0.03927 0.02307,0.08653 0.0657,0.09258"
       id="path23014" />
    <path
       style="fill:none;stroke:#c5c5c5;stroke-width:0.991473;stroke-linecap:round;stroke-linejoin:round;stroke-miterlimit:10;stroke-opacity:1"
       d="m 19.167095,14.52676 c -0.06298,0.411744 -0.03941,0.83028 -0.05183,1.245289 -0.0021,0.385625 -0.01696,0.771285 -0.01359,1.156857 0.0058,-0.03198 0.01259,-0.06374 0.01913,-0.09557"
       id="path23016" />
    <path
       style="fill:none;stroke:#c5c5c5;stroke-width:0.991473;stroke-linecap:round;stroke-linejoin:round;stroke-miterlimit:10;stroke-opacity:1"
       d="m 19.401573,13.025217 c 0.0047,-0.05507 0.0096,-0.110149 0.01437,-0.165218"
       id="path23018" />
    <path
       style="fill:none;stroke:#c5c5c5;stroke-width:0.991473;stroke-linecap:round;stroke-linejoin:round;stroke-miterlimit:10;stroke-opacity:1"
       d="m 21.00625,15.304258 c 0.188606,0.194122 0.473166,0.09315 0.70755,0.140405 0.440081,0.02048 0.954634,-0.09273 1.199049,-0.50258 0.151554,-0.287042 0.0096,-0.630017 -0.195085,-0.848087 -0.269157,-0.322861 -0.780416,-0.472325 -1.140166,-0.214323 -0.338041,0.208219 -0.673971,0.466718 -0.858685,0.83022 -0.145663,0.347079 -0.148876,0.734141 -0.153442,1.105391 0.01334,0.467676 0.184181,0.969278 0.587607,1.233074 0.388346,0.27755 0.923059,0.311416 1.343047,0.08657 0.178085,-0.07436 0.350709,-0.161784 0.518356,-0.25785"
       id="path23020" />
    <path
       style="fill:none;stroke:#c5c5c5;stroke-width:0.991473;stroke-linecap:round;stroke-linejoin:round;stroke-miterlimit:10;stroke-opacity:1"
       d="m 24.907874,13.878845 c -0.220975,0.348067 -0.0958,0.778446 -0.162981,1.163518 -0.02705,0.591682 -0.0578,1.183863 -0.04595,1.776397 0.257515,-0.208508 0.10964,-0.582102 0.217774,-0.859251 0.190163,-0.755371 0.594391,-1.510478 1.289307,-1.895066 0.20328,-0.09911 0.476359,-0.268008 0.674007,-0.06587 0.237136,0.260666 0.22008,0.644747 0.257412,0.975671 0.04867,0.649457 -0.128064,1.286814 -0.121382,1.934821 0.25996,-0.372442 0.216562,-0.85922 0.404154,-1.26275 0.278742,-0.906224 0.951149,-1.7172 1.850613,-2.025246 0.391237,-0.0601 0.602946,0.36681 0.59431,0.707266 0.08843,0.905632 -0.243467,1.773667 -0.400586,2.65183 -0.01254,0.05689 -0.02511,0.11377 -0.03771,0.170647"
       id="path23022" />
    <path
       style="fill:none;stroke:#c5c5c5;stroke-width:0.991473;stroke-linecap:round;stroke-linejoin:round;stroke-miterlimit:10;stroke-opacity:1"
       d="m 33.915432,14.421474 c 0.03967,-0.584758 -0.510086,-1.06311 -1.076038,-0.925687 -0.668078,0.05449 -1.107856,0.648209 -1.261794,1.264133 -0.18223,0.617899 -0.319609,1.306905 -0.128128,1.935546 0.282186,0.626976 1.104926,0.536942 1.4895,0.06931 0.78665,-0.786903 1.057492,-1.919005 1.581013,-2.876231 -0.175577,0.895138 -0.275679,1.812597 -0.265368,2.724335 0.0185,0.120976 0.05296,0.239787 0.105763,0.350023"
       id="path23024" />
    <path
       style="fill:none;stroke:#c5c5c5;stroke-width:0.991473;stroke-linecap:round;stroke-linejoin:round;stroke-miterlimit:10;stroke-opacity:1"
       d="m 36.863187,13.527353 c -0.360014,1.055625 -0.374539,2.184287 -0.500591,3.282698 -0.02451,0.150019 0.122569,0.228565 0.135697,0.0359 0.215256,-0.748008 0.363584,-1.566621 0.904819,-2.156872 0.360014,-0.383568 0.938005,-0.550988 1.438882,-0.390027 0.286553,0.154949 0.307003,0.530689 0.273274,0.820664 -0.07747,0.667393 -0.353784,1.298413 -0.384173,1.972621 0.0024,0.04309 0.01076,0.08683 0.03185,0.12489"
       id="path23026" />
    <path
       style="fill:none;stroke:#c5c5c5;stroke-width:0.991473;stroke-linecap:round;stroke-linejoin:round;stroke-miterlimit:10;stroke-opacity:1"
       d="m 43.261149,14.351824 c -0.04039,-0.401007 -0.201532,-0.872028 -0.607877,-1.02061 -0.465941,-0.117296 -0.93092,0.146614 -1.272297,0.447903 -0.386007,0.369981 -0.775761,0.790718 -0.890849,1.335132 -0.131002,0.562959 -0.06957,1.191358 0.229261,1.689568 0.21455,0.306833 0.641146,0.480688 0.988374,0.302975 0.559227,-0.209271 0.862755,-0.772801 1.092446,-1.294193 0.45834,-0.960835 0.946347,-1.911283 1.287917,-2.923681 0.05079,-0.140146 0.203201,-0.56424 0.07825,-0.219447 -0.426653,1.212596 -0.6323,2.487951 -0.91531,3.739093 -0.05224,0.289772 -0.09199,0.58232 -0.106433,0.876724"
       id="path23028" />
    <path
       style="fill:none;stroke:#000000;stroke-width:0.641544;stroke-linecap:round;stroke-linejoin:round;stroke-miterlimit:10;stroke-opacity:1"
       d="m 14.209508,21.229441 c -0.119714,0.830022 -0.01952,1.702044 0.129205,2.513951 0.08489,-0.985786 0.09271,-2.171364 0.901433,-2.865403 0.778264,0.138228 0.648966,1.427399 0.82447,2.097624 0.04216,0.276762 0.07395,1.127838 0.06376,0.344982 -0.02589,-0.82125 0.03865,-1.970471 0.932942,-2.292001 0.946778,0.151455 0.942969,1.348606 1.082878,2.109367 0.03057,0.161647 0.0499,0.348184 0.185429,0.459616"
       id="path23030" />
    <path
       style="fill:none;stroke:#000000;stroke-width:0.641544;stroke-linecap:round;stroke-linejoin:round;stroke-miterlimit:10;stroke-opacity:1"
       d="m 21.015821,21.44811 c 0.008,-0.03725 -0.02233,-0.111771 -0.08933,-0.22353 -0.04307,-0.06803 -0.0973,-0.140922 -0.164296,-0.213811 -0.0654,-0.07451 -0.137177,-0.134442 -0.213742,-0.178177 -0.07657,-0.04536 -0.162701,-0.07128 -0.258408,-0.07775 -0.0973,-0.0065 -0.199387,0.0098 -0.307855,0.05184 -0.110056,0.04212 -0.212148,0.108528 -0.307855,0.200855 -0.0957,0.09233 -0.181843,0.205713 -0.255216,0.338535 -0.07337,0.134442 -0.127609,0.30128 -0.1627,0.502133 -0.0351,0.202474 -0.04945,0.401708 -0.04307,0.597702 0.008,0.197616 0.04785,0.375792 0.119633,0.53453 0.07337,0.16036 0.177057,0.291562 0.309451,0.396848 0.132394,0.103661 0.272762,0.170078 0.422704,0.197614 0.149938,0.02753 0.285522,0.0162 0.40675,-0.03726 0.121228,-0.05345 0.226507,-0.13768 0.315831,-0.254306 0.08933,-0.115004 0.162701,-0.254306 0.220124,-0.416284 0.05743,-0.16036 0.09252,-0.353114 0.106874,-0.576645 0.01595,-0.221911 0.02552,-0.426003 0.0303,-0.609041 0.0047,-0.183034 0.008,-0.28346 0.008,-0.302898 0,-0.01782 0,-0.02592 0,-0.0243 -0.0015,0.0033 -0.0064,0.01782 -0.01437,0.04374 -0.008,0.02592 -0.01434,0.08584 -0.01595,0.178176 -0.0015,0.09233 0.008,0.246208 0.0319,0.458399 0.02233,0.212192 0.05264,0.435723 0.09252,0.668972 0.03828,0.23163 0.07975,0.442202 0.122822,0.630098 0.0638,0.280222 0.183437,0.510234 0.357305,0.69003"
       id="path23032" />
    <path
       style="fill:none;stroke:#000000;stroke-width:0.641544;stroke-linecap:round;stroke-linejoin:round;stroke-miterlimit:10;stroke-opacity:1"
       d="m 24.048114,21.303949 c -0.402477,-1.187034 -1.976146,-0.156499 -1.664488,0.835329 0.02917,0.803625 0.80432,1.83886 1.674757,1.435485 1.14431,-0.616072 1.201353,-2.118563 1.292935,-3.270267 0.115474,1.105897 0.387578,2.198996 0.660369,3.276829 0.07892,-0.96409 -0.115729,-2.153081 0.679707,-2.872894 1.035513,-0.560361 1.422916,0.939717 1.467297,1.706547 0.07716,0.209056 -0.06444,0.62013 0.164295,0.729006"
       id="path23034" />
    <path
       style="fill:none;stroke:#000000;stroke-width:0.641544;stroke-linecap:round;stroke-linejoin:round;stroke-miterlimit:10;stroke-opacity:1"
       d="m 29.586318,19.664726 c -0.09979,1.155423 -0.0652,2.329298 0.176807,3.465353 0.02964,0.07589 0.06747,0.148409 0.111909,0.216422"
       id="path23036" />
    <path
       style="fill:none;stroke:#000000;stroke-width:0.641544;stroke-linecap:round;stroke-linejoin:round;stroke-miterlimit:10;stroke-opacity:1"
       d="m 29.181163,21.269934 c 0.211534,-0.06854 0.436407,-0.03363 0.65399,-0.04049"
       id="path23038" />
    <path
       style="fill:none;stroke:#000000;stroke-width:0.641544;stroke-linecap:round;stroke-linejoin:round;stroke-miterlimit:10;stroke-opacity:1"
       d="m 32.771742,20.199255 c 0,-0.03564 0,-0.05507 0,-0.05507 v -0.0015 0.01459 c 0,0.0098 0.0015,0.110149 0.0015,0.30128 0.0015,0.189514 0.01277,0.426004 0.0319,0.706228 0.01913,0.281842 0.04466,0.568546 0.07178,0.861726 0.02871,0.293183 0.05902,0.521572 0.08933,0.68517 0.0319,0.161978 0.0622,0.299661 0.08933,0.413046 0.02871,0.11176 0.04467,0.173318 0.04625,0.183037 0.0032,0.01128 0.0047,0.01128 0.0047,0 -0.0015,-0.0098 -0.0032,-0.06966 -0.0064,-0.181418 -0.0032,-0.11176 -0.0096,-0.236488 -0.02073,-0.374169 -0.01111,-0.139303 -0.01755,-0.304522 -0.02073,-0.498895 -0.0015,-0.194375 0.01111,-0.359594 0.03988,-0.494035 0.02871,-0.136062 0.07975,-0.265646 0.156319,-0.38875 0.07657,-0.121484 0.181844,-0.234868 0.315832,-0.336915 0.133988,-0.102051 0.272764,-0.163599 0.414725,-0.187895 0.143558,-0.0243 0.277549,0.0048 0.401964,0.09071 0.124423,0.08423 0.240864,0.199234 0.349328,0.343394 0.110068,0.144162 0.20577,0.306141 0.29031,0.484318 0.08455,0.178176 0.149941,0.359592 0.197795,0.542626 0.04785,0.183038 0.07657,0.341776 0.08453,0.476218 0.0096,0.134442 -0.0096,0.262407 -0.05583,0.383891 -0.04785,0.121484 -0.119634,0.233249 -0.216935,0.335295 -0.0957,0.100429 -0.207363,0.174937 -0.336567,0.223531 -0.127608,0.04859 -0.255217,0.06803 -0.382825,0.05507 -0.181841,-0.01782 -0.438652,-0.223531 -0.770433,-0.618759"
       id="path23040" />
    <path
       style="fill:none;stroke:#000000;stroke-width:0.641544;stroke-linecap:round;stroke-linejoin:round;stroke-miterlimit:10;stroke-opacity:1"
       d="m 36.003422,22.071728 c 0.159512,0.01782 0.319021,0.0324 0.476941,0.04374 0.105276,0.0081 0.223312,0.01128 0.355706,0.01296 0.132395,0 0.269574,-0.0098 0.409943,-0.03239 0.14037,-0.02105 0.261596,-0.05184 0.363682,-0.08746 0.102081,-0.03726 0.186626,-0.08261 0.252027,-0.136065 0.0654,-0.05507 0.113252,-0.116626 0.145155,-0.189514 0.03189,-0.07127 0.03826,-0.160358 0.02074,-0.268884 -0.01911,-0.108527 -0.05583,-0.194374 -0.110057,-0.257546 -0.05583,-0.06317 -0.137179,-0.116626 -0.247241,-0.16198 -0.110057,-0.04374 -0.236078,-0.07451 -0.381228,-0.08909 -0.143563,-0.01456 -0.282335,-0.01456 -0.416322,0.0015 -0.133991,0.0162 -0.253624,0.06155 -0.3589,0.139302 -0.105277,0.07613 -0.194606,0.184656 -0.271171,0.323956 -0.07657,0.139303 -0.130797,0.31586 -0.165891,0.53129 -0.03507,0.215432 -0.03826,0.422766 -0.008,0.623618 0.02871,0.200854 0.105277,0.38551 0.229696,0.555588 0.122822,0.170076 0.267977,0.312618 0.435464,0.426002 0.167483,0.113382 0.346135,0.186277 0.539144,0.215434 0.193009,0.03077 0.378039,0.02267 0.558288,-0.02105 0.180248,-0.04374 0.342945,-0.119865 0.489697,-0.228391 0.146747,-0.108528 0.264783,-0.231627 0.355707,-0.367691 0.09251,-0.137682 0.162701,-0.299662 0.210555,-0.487556 0.04785,-0.187894 0.08295,-0.36607 0.105277,-0.53291 0.02234,-0.168458 0.03507,-0.3029 0.0399,-0.406566 0.0047,-0.102051 0.008,-0.157119 0.008,-0.163598 v -0.0033 0.0048 c 0,0.0065 -0.0016,0.06317 -0.0032,0.173318 -0.0032,0.108527 0,0.265644 0.0096,0.471357 0.0096,0.205713 0.02392,0.411426 0.04307,0.620379 0.01911,0.208952 0.04307,0.393609 0.07178,0.552348 0.0303,0.160358 0.06061,0.280222 0.09411,0.359592 0.04467,0.108527 0.0973,0.118245 0.157916,0.03077"
       id="path23042" />
    <path
       style="fill:none;stroke:#000000;stroke-width:0.641544;stroke-linecap:round;stroke-linejoin:round;stroke-miterlimit:10;stroke-opacity:1"
       d="m 39.144186,20.037276 -0.07019,-0.08584"
       id="path23044" />
    <path
       style="fill:none;stroke:#000000;stroke-width:0.641544;stroke-linecap:round;stroke-linejoin:round;stroke-miterlimit:10;stroke-opacity:1"
       d="m 13.987789,26.893834 c -0.183068,0.22119 -0.08321,0.527673 -0.144059,0.786723 -0.05311,0.787552 -0.08576,1.632001 0.296117,2.348182 0.209819,0.351965 0.69406,0.461518 1.045376,0.27001 0.414962,-0.203527 0.686973,-0.607464 0.918501,-0.996478 0.33098,-0.621405 0.314647,-1.348483 0.338035,-2.03429 0.03579,-0.20037 -0.05847,-0.488554 0.06097,-0.635565 0.05597,0.222202 0.01881,0.475124 0.05116,0.708543 0.05521,0.892894 0.126292,1.785374 0.217848,2.674955 0.02615,0.149171 0.064,0.296867 0.122309,0.436605"
       id="path23046" />
    <path
       style="fill:none;stroke:#000000;stroke-width:0.641544;stroke-linecap:round;stroke-linejoin:round;stroke-miterlimit:10;stroke-opacity:1"
       d="m 17.769782,27.734505 c -0.06072,0.605386 -0.01734,1.218444 0.04226,1.822801 0.0203,0.150595 0.07709,0.598909 0.102128,0.54266 0.02645,-0.700012 -0.04838,-1.491442 0.408058,-2.075532 0.261572,-0.26507 0.594678,-0.500447 0.967858,-0.553574 0.377685,-0.04373 0.581464,0.359806 0.662944,0.673052 0.151078,0.567905 0.09784,1.161207 0.171995,1.738707 0.01639,0.09726 0.03974,0.193446 0.07248,0.286406"
       id="path23048" />
    <path
       style="fill:none;stroke:#000000;stroke-width:0.641544;stroke-linecap:round;stroke-linejoin:round;stroke-miterlimit:10;stroke-opacity:1"
       d="m 21.45288,26.683263 c 0.172623,0.945846 0.06769,1.917623 0.235193,2.864912 0.03062,0.247112 0.06853,0.493374 0.117323,0.737482"
       id="path23050" />
    <path
       style="fill:none;stroke:#000000;stroke-width:0.641544;stroke-linecap:round;stroke-linejoin:round;stroke-miterlimit:10;stroke-opacity:1"
       d="m 21.280608,27.946697 c 0.32008,0.06052 0.641409,-0.03138 0.961848,-0.03545"
       id="path23052" />
    <path
       style="fill:none;stroke:#000000;stroke-width:0.641544;stroke-linecap:round;stroke-linejoin:round;stroke-miterlimit:10;stroke-opacity:1"
       d="m 23.213874,28.116772 c 0.16017,0.200089 0.436015,0.175702 0.65878,0.237632 0.439303,0.05302 0.899918,-0.0029 1.295861,-0.211304 0.170051,-0.148986 0.0906,-0.429379 -0.0671,-0.555159 -0.313656,-0.275035 -0.78834,-0.412215 -1.175464,-0.218706 -0.319892,0.177152 -0.514795,0.522071 -0.620659,0.865501 -0.155457,0.526894 -0.03439,1.155551 0.386417,1.523248 0.227281,0.204007 0.538009,0.296034 0.838105,0.264203 0.09047,-0.0016 0.18082,-0.0071 0.271174,-0.01178"
       id="path23054" />
    <path
       style="fill:none;stroke:#000000;stroke-width:0.641544;stroke-linecap:round;stroke-linejoin:round;stroke-miterlimit:10;stroke-opacity:1"
       d="m 26.337089,27.546607 c -0.01176,0.859361 0.03411,1.838086 0.294343,2.66153 0.327889,-0.785489 -0.304607,-1.820327 0.243714,-2.546825 0.200729,-0.271618 0.540353,-0.441937 0.876788,-0.406264"
       id="path23056"
       sodipodi:nodetypes="cccc" />
    <path
       style="fill:none;stroke:#000000;stroke-width:0.641544;stroke-linecap:round;stroke-linejoin:round;stroke-miterlimit:10;stroke-opacity:1"
       d="m 28.71539,27.536892 c -0.124975,0.762059 0.01111,1.795778 0.153188,2.541723 0.178979,-0.674427 -0.193978,-1.714031 0.258598,-2.324339 0.157096,-0.273779 0.409833,-0.505042 0.719185,-0.578574"
       id="path23058"
       sodipodi:nodetypes="cccc" />
    <path
       style="fill:none;stroke:#000000;stroke-width:0.641544;stroke-linecap:round;stroke-linejoin:round;stroke-miterlimit:10;stroke-opacity:1"
       d="m 30.648658,27.770141 c 0.125087,0.789411 -0.01581,1.623932 0.29988,2.377831"
       id="path23060" />
    <path
       style="fill:none;stroke:#000000;stroke-width:0.641544;stroke-linecap:round;stroke-linejoin:round;stroke-miterlimit:10;stroke-opacity:1"
       d="m 30.779457,26.288035 c -0.02552,-0.01295 -0.05105,-0.02592 -0.07657,-0.03887"
       id="path23062" />
    <path
       style="fill:none;stroke:#000000;stroke-width:0.641544;stroke-linecap:round;stroke-linejoin:round;stroke-miterlimit:10;stroke-opacity:1"
       d="m 33.680952,27.496396 c -0.0934,-0.752203 -1.295795,-0.790095 -1.524037,-0.108233 -0.533098,0.786275 -0.590773,2.036644 0.199564,2.673943 0.731613,0.464595 1.722892,-0.02799 2.034958,-0.788171 0.4947,-0.860642 0.593973,-1.884442 0.576683,-2.862245 -0.01134,1.115572 0.03116,2.233127 0.164429,3.341063 0.06961,-1.078382 0.479996,-2.210016 1.370444,-2.860936 0.709066,-0.0426 0.824317,0.85542 0.774572,1.397976 -0.0087,0.609314 -8.16e-4,1.219216 0.03863,1.827405"
       id="path23064" />
    <path
       style="fill:none;stroke:#000000;stroke-width:0.641544;stroke-linecap:round;stroke-linejoin:round;stroke-miterlimit:10;stroke-opacity:1"
       d="m 39.113879,26.054786 c 0.09458,1.306977 -0.212128,2.663027 0.255282,3.924728"
       id="path23066" />
    <path
       style="fill:none;stroke:#000000;stroke-width:0.641544;stroke-linecap:round;stroke-linejoin:round;stroke-miterlimit:10;stroke-opacity:1"
       d="m 38.676818,27.807395 c 0.452779,0.02359 0.904717,0.06118 1.357433,0.08587"
       id="path23068" />
    <path
       style="fill:none;stroke:#000000;stroke-width:0.641544;stroke-linecap:round;stroke-linejoin:round;stroke-miterlimit:10;stroke-opacity:1"
       d="m 14.54129,34.801635 c -0.02571,0.749836 -0.03122,1.522414 0.220124,2.238546 0.124713,-0.379813 -0.01221,-0.80482 0.156631,-1.181311 0.172463,-0.603089 0.523097,-1.208426 1.095611,-1.492289 0.355334,-0.14469 0.787844,0.130404 0.822573,0.516105 0.212377,0.615649 0.226721,1.274328 0.332777,1.912153 0.08139,-0.804144 0.392671,-1.605251 0.955794,-2.186836 0.381103,-0.317936 0.811742,0.09248 0.853219,0.501587 0.213523,0.662063 0.165393,1.373409 0.331001,2.045506"
       id="path23070" />
    <path
       style="fill:none;stroke:#000000;stroke-width:0.641544;stroke-linecap:round;stroke-linejoin:round;stroke-miterlimit:10;stroke-opacity:1"
       d="m 20.261337,34.51817 c 0.06472,0.771821 0.192693,1.536658 0.258925,2.308346 l 0.0061,0.04852 0.0061,0.04851"
       id="path23072" />
    <path
       style="fill:none;stroke:#000000;stroke-width:0.641544;stroke-linecap:round;stroke-linejoin:round;stroke-miterlimit:10;stroke-opacity:1"
       d="m 20.372993,32.968035 -0.02552,0.05346"
       id="path23074" />
    <path
       style="fill:none;stroke:#000000;stroke-width:0.641544;stroke-linecap:round;stroke-linejoin:round;stroke-miterlimit:10;stroke-opacity:1"
       d="m 21.685764,33.063604 c 0.01264,0.802451 0.123718,1.599293 0.189578,2.398212 0.04989,0.457409 0.106261,0.91405 0.159741,1.371032"
       id="path23076" />
    <path
       style="fill:none;stroke:#000000;stroke-width:0.641544;stroke-linecap:round;stroke-linejoin:round;stroke-miterlimit:10;stroke-opacity:1"
       d="m 21.524659,34.579723 c 0.236238,-0.08686 0.501948,-0.04578 0.748107,-0.08588"
       id="path23078" />
    <path
       style="fill:none;stroke:#ebca7d;stroke-width:0.349931;stroke-linecap:round;stroke-linejoin:round;stroke-miterlimit:10;stroke-opacity:1"
       d="m 37.616076,37.383577 c -0.02552,-0.0243 -0.06859,-0.08261 -0.130797,-0.178178 -0.06222,-0.09556 -0.100496,-0.16684 -0.116444,-0.21543 -0.01433,-0.04697 -0.02712,-0.147401 -0.03349,-0.301279 -0.008,-0.152262 0.01274,-0.340159 0.06061,-0.56531 0.04627,-0.223529 0.126015,-0.46326 0.236077,-0.717565 0.110057,-0.252684 0.242456,-0.468119 0.395586,-0.643055 0.153129,-0.174934 0.298284,-0.310998 0.437057,-0.408184 0.137179,-0.09556 0.267981,-0.155499 0.392396,-0.178177 0.124419,-0.02269 0.247242,0 0.368471,0.06965 0.121227,0.06803 0.223313,0.183034 0.307854,0.345015 0.08295,0.160355 0.135582,0.359589 0.159512,0.596081 0.02234,0.234871 0.01438,0.429241 -0.02393,0.578263 -0.0399,0.150639 -0.103679,0.252684 -0.191409,0.302901 -0.08932,0.05021 -0.177058,0.07289 -0.263195,0.06479 -0.08613,-0.0081 -0.159508,-0.05993 -0.22172,-0.158738 -0.06221,-0.09881 -0.103679,-0.23973 -0.122822,-0.421145 -0.01756,-0.181416 -0.0064,-0.370932 0.03507,-0.566926 0.04147,-0.195992 0.137181,-0.426003 0.287121,-0.688407 0.149937,-0.262408 0.350921,-0.515093 0.599755,-0.7613 0.250435,-0.244591 0.520009,-0.445442 0.808722,-0.605801 0.288714,-0.158743 0.564666,-0.255927 0.827858,-0.288321 0.26319,-0.03401 0.504053,-0.0016 0.725774,0.09556 0.220124,0.09881 0.386014,0.255928 0.497672,0.474601 0.113252,0.217049 0.178651,0.494033 0.196198,0.826088 0.01916,0.333677 -0.0096,0.651157 -0.08453,0.952436 -0.07497,0.299661 -0.175463,0.55235 -0.303071,0.754824 -0.126017,0.20409 -0.274361,0.36607 -0.44344,0.489171 -0.169085,0.123106 -0.328593,0.208955 -0.481722,0.259167 -0.151534,0.04859 -0.274356,0.05831 -0.365279,0.02753 -0.09251,-0.03238 -0.146751,-0.100428 -0.164298,-0.208953 -0.01756,-0.106906 0.02552,-0.241349 0.126015,-0.401703 0.102093,-0.158743 0.250432,-0.311003 0.44663,-0.453544 0.196198,-0.142542 0.413132,-0.234867 0.653991,-0.278601 0.239266,-0.04212 0.488105,-0.02592 0.744914,0.05346 0.256814,0.07776 0.473748,0.205712 0.650803,0.382268 0.177058,0.178178 0.306264,0.388749 0.386018,0.633334 0.07975,0.244591 0.114849,0.494037 0.106874,0.746726 -0.008,0.254305 -0.06859,0.494036 -0.180249,0.720803 -0.111654,0.226773 -0.271167,0.422764 -0.478529,0.589601 -0.207366,0.166841 -0.453011,0.306143 -0.736943,0.416287 -0.283928,0.111771 -0.596565,0.200855 -0.937918,0.267268 -0.341355,0.06641 -0.682708,0.106905 -1.022464,0.118242 -0.341353,0.01294 -0.66516,-0.01621 -0.97142,-0.08748 -0.307857,-0.06966 -0.564665,-0.173318 -0.772028,-0.310999 -0.207366,-0.137681 -0.362089,-0.333676 -0.46418,-0.586362 -0.102081,-0.254305 -0.157911,-0.524812 -0.165891,-0.814754 -0.008,-0.288321 0.0303,-0.537767 0.114849,-0.746721 0.08455,-0.208954 0.186627,-0.349873 0.307852,-0.424385 0.119633,-0.07451 0.248839,-0.106905 0.386014,-0.09718 0.137184,0.0098 0.267982,0.08099 0.393994,0.215431 0.124419,0.132821 0.220122,0.319097 0.285523,0.558828 0.0654,0.238105 0.08614,0.463259 0.0622,0.670588 -0.02234,0.208954 -0.110056,0.388749 -0.261594,0.536153 -0.151538,0.149019 -0.325404,0.259166 -0.521602,0.333678 -0.196194,0.07289 -0.409939,0.111759 -0.638041,0.118242 -0.228098,0.0065 -0.457794,-0.03077 -0.690681,-0.11176 -0.231288,-0.08099 -0.451412,-0.208953 -0.658777,-0.383888 -0.207363,-0.176556 -0.381229,-0.37579 -0.518409,-0.599324 -0.138772,-0.223529 -0.23448,-0.477835 -0.29031,-0.764539 -0.05423,-0.285083 -0.07337,-0.578263 -0.05742,-0.877924 0.01596,-0.299658 0.07178,-0.562067 0.167483,-0.788835 0.0957,-0.226772 0.226506,-0.417908 0.389208,-0.576646 0.162697,-0.157117 0.319021,-0.247825 0.467365,-0.273745 0.148344,-0.0243 0.277548,0.03077 0.386018,0.16684 0.10846,0.136064 0.193005,0.330434 0.252028,0.584744 0.05901,0.254307 0.08135,0.52967 0.07018,0.82771 -0.01278,0.298041 -0.06222,0.513471 -0.146753,0.646297 -0.08453,0.132821 -0.196193,0.221908 -0.331781,0.270502 -0.135583,0.04697 -0.271166,0.05994 -0.408346,0.03724 -0.135583,-0.02106 -0.277545,-0.09556 -0.425893,-0.221908 -0.148344,-0.127965 -0.271167,-0.3029 -0.373254,-0.524813 -0.100495,-0.223529 -0.169084,-0.476218 -0.204173,-0.75644 -0.03507,-0.280222 -0.04147,-0.566926 -0.02234,-0.860107 0.02074,-0.29318 0.07975,-0.552346 0.175462,-0.779114 0.0957,-0.225155 0.234481,-0.414669 0.414725,-0.568547 0.180249,-0.1555 0.389207,-0.255927 0.625281,-0.302901 0.236078,-0.04859 0.497677,-0.05184 0.781604,-0.0098 0.285524,0.04052 0.571048,0.160363 0.858164,0.356355 0.287121,0.195996 0.531174,0.393609 0.733751,0.592843 0.204172,0.197613 0.35092,0.38551 0.441843,0.563682 0.09251,0.176562 0.137179,0.322341 0.135583,0.437348 0,0.115004 -0.04466,0.197609 -0.133987,0.249446 -0.08773,0.05022 -0.199392,0.07289 -0.333378,0.06803 -0.133987,-0.0048 -0.264788,-0.05184 -0.393989,-0.142542 -0.127608,-0.09071 -0.226506,-0.236491 -0.295096,-0.437343 -0.0686,-0.200851 -0.102082,-0.414665 -0.100496,-0.641437 0.0032,-0.226768 0.0638,-0.464877 0.186627,-0.717562 0.121225,-0.251071 0.293499,-0.450306 0.513623,-0.594464 0.221719,-0.145779 0.473746,-0.249446 0.759266,-0.310998 0.285529,-0.06317 0.574242,-0.07451 0.869338,-0.03724 0.295092,0.03886 0.566262,0.147398 0.816692,0.328818 0.248834,0.179795 0.453008,0.430862 0.610924,0.751576 0.159512,0.319101 0.274355,0.644676 0.346139,0.973493 0.07178,0.330439 0.100495,0.61876 0.08773,0.864966 -0.01433,0.24783 -0.0654,0.466503 -0.156319,0.657635 -0.09092,0.191135 -0.208959,0.335298 -0.350922,0.434105 -0.143562,0.09718 -0.307855,0.158738 -0.491293,0.181416 -0.185034,0.02106 -0.368471,0.0146 -0.551909,-0.02269 -0.183433,-0.03724 -0.344542,-0.108528 -0.484912,-0.215432 -0.138772,-0.105283 -0.232883,-0.247828 -0.283926,-0.424384 -0.04945,-0.176556 -0.04626,-0.348257 0.01274,-0.513472 0.05742,-0.165219 0.167492,-0.31262 0.330189,-0.445441 0.164294,-0.131204 0.355711,-0.225151 0.577426,-0.280223 0.221721,-0.05346 0.435466,-0.06156 0.642828,-0.01945 0.207367,0.04052 0.401968,0.137685 0.585405,0.291563 0.185031,0.153878 0.328589,0.36445 0.432272,0.630097 0.105276,0.265647 0.164298,0.541009 0.178652,0.826091 0.01596,0.285083 -0.02234,0.553968 -0.114849,0.805035 -0.09252,0.251068 -0.231287,0.466498 -0.416322,0.646293 -0.185029,0.181421 -0.395585,0.345014 -0.633255,0.490798 -0.236078,0.145779 -0.499269,0.259166 -0.791171,0.340154 -0.29031,0.08099 -0.593381,0.134443 -0.909213,0.160359 -0.315827,0.02592 -0.620494,0.01783 -0.910804,-0.02106 -0.290306,-0.0389 -0.531169,-0.124727 -0.720989,-0.25431 -0.189816,-0.129582 -0.326992,-0.281843 -0.411536,-0.460021 -0.08295,-0.178173 -0.124419,-0.362828 -0.122822,-0.552343 0.0016,-0.189517 0.04945,-0.383892 0.143563,-0.583126 0.0957,-0.199234 0.232883,-0.393609 0.414724,-0.583124 0.180248,-0.189514 0.378039,-0.354732 0.590187,-0.497274 0.212152,-0.14092 0.425894,-0.21867 0.644424,-0.234866 0.216934,-0.01783 0.409943,0.04374 0.580615,0.183033 0.169085,0.139302 0.298289,0.315859 0.384426,0.53129 0.08773,0.215431 0.129201,0.437343 0.124416,0.665733 -0.0032,0.228389 -0.0622,0.421145 -0.173866,0.578266 -0.111654,0.158738 -0.266381,0.294799 -0.464177,0.408184 -0.197789,0.113382 -0.405156,0.199234 -0.623683,0.255927 -0.216934,0.05831 -0.44344,0.08261 -0.682706,0.07289 -0.239267,-0.0098 -0.457797,-0.06317 -0.655588,-0.158737 -0.197795,-0.09557 -0.365279,-0.220292 -0.500861,-0.370931 -0.135589,-0.152261 -0.223318,-0.359593 -0.261599,-0.621997 -0.03827,-0.262409 -0.01756,-0.545874 0.0638,-0.850393 0.08135,-0.304517 0.199387,-0.578262 0.355706,-0.822853 0.156324,-0.244585 0.349329,-0.453539 0.579024,-0.628475 0.229699,-0.173317 0.453011,-0.304521 0.668349,-0.390369 0.216938,-0.08585 0.414729,-0.126344 0.598165,-0.124724 0.181842,0.0033 0.331782,0.05831 0.448227,0.166837 0.11644,0.108528 0.193005,0.221912 0.228098,0.336916 0.03667,0.115004 0.04626,0.204093 0.02871,0.267268 -0.02393,0.09071 -0.09252,0.132821 -0.204174,0.129583"
       id="path23082" />
    <path
       style="fill:none;stroke:#9c6b57;stroke-width:0.349931;stroke-linecap:round;stroke-linejoin:round;stroke-miterlimit:10;stroke-opacity:1"
       d="m 39.298909,34.411266 c -0.509004,-0.476207 -1.322225,-0.459579 -1.875441,-0.06965 -0.372087,0.255174 -0.844658,0.574996 -0.820275,1.08526 -0.07523,0.462308 0.402017,0.683453 0.77634,0.759985 0.7159,0.200101 1.567816,0.246553 2.071017,0.866006 0.263228,0.428586 -0.531786,0.39063 -0.793839,0.433366 -0.522833,0.05474 -1.083959,-0.126781 -1.389069,-0.575467 -0.476965,-0.569839 -0.442386,-1.415018 -0.06098,-2.022872 0.228598,-0.35682 0.439839,-0.765353 0.854482,-0.936632 0.487154,-0.31278 1.092518,-0.329155 1.651889,-0.28255 0.57795,0.06323 1.207425,0.325603 1.454355,0.888191 0.305141,0.466342 0.04099,1.100678 -0.383379,1.391549 -0.283851,-0.05192 0.107545,-0.560051 0.120321,-0.775566 0.18809,-0.616312 0.39267,-1.281043 0.250049,-1.927242 -0.137703,-0.413575 -0.638005,-0.528386 -1.024413,-0.533523 -0.536374,-0.01894 -1.182774,0.162971 -1.372815,0.725864 -0.189564,0.444562 0.0377,0.932233 0.316654,1.28114 0.655866,0.459389 1.393775,0.795652 2.031339,1.285236 0.307949,0.217742 0.559899,0.560064 0.612329,0.937013 0.02275,0.489543 -0.542739,0.619113 -0.92873,0.597497 -0.620838,0.04338 -1.246044,-0.211716 -1.666062,-0.669457 -0.356687,-0.304516 -0.05001,-0.713359 0.312212,-0.816167 0.71126,-0.355452 1.489186,-0.533532 2.262014,-0.695777 0.440818,-0.02071 0.663751,-0.53434 0.407954,-0.879904 -0.245788,-0.284759 -0.508188,-0.633211 -0.898094,-0.705571 -0.465016,0.03909 -0.171993,0.684344 0.03723,0.879139 0.458167,0.428908 1.163076,0.460599 1.744941,0.317828 0.480458,-0.129587 0.899214,-0.451988 1.165449,-0.870413 -0.115323,0.663078 -0.05046,1.343543 -0.08925,2.013776 -0.02548,0.77775 -0.04478,1.623566 -0.510463,2.283516 -0.527158,0.466806 -1.290389,0.484939 -1.95748,0.450847 -0.688206,-0.07684 -1.444946,-0.233963 -1.907168,-0.798302 -0.5864,-0.596913 -0.797713,-1.508117 -0.612768,-2.31418 0.177771,-0.683313 0.874903,-1.073923 1.538603,-1.141235 0.872744,-0.103841 1.850135,0.209963 2.371216,0.944712 0.384132,0.562894 0.108849,1.405286 -0.475662,1.713367 -0.72266,0.312116 -1.523585,0.412876 -2.305274,0.429008 -0.764334,-0.03 -1.545573,-0.156156 -2.231873,-0.507677 -0.321831,-0.189987 -0.596746,-0.629223 -0.444362,-1.003758 0.498893,-0.811684 1.40479,-1.206813 2.236736,-1.585366 0.563806,-0.291937 1.148625,-0.551047 1.685065,-0.891349 0.357077,-0.24667 0.748688,-0.62178 0.712479,-1.09264 -0.13784,-0.473732 -0.663818,-0.685044 -1.099313,-0.804855 -0.709651,-0.158234 -1.435099,-0.270347 -2.162727,-0.285795 -0.784183,0.09859 -1.338455,0.770932 -1.613119,1.466416 -0.314164,0.804827 -0.544186,1.710543 -0.325092,2.568675 0.214111,0.773737 0.947061,1.254674 1.644606,1.555209 0.524795,0.198776 1.093395,0.348605 1.655496,0.226365 0.268669,-0.03692 0.535788,-0.08429 0.802238,-0.134576"
       id="path23084" />
    <path
       style="fill:none;stroke:#ebca7d;stroke-width:0.349931;stroke-linecap:round;stroke-linejoin:round;stroke-miterlimit:10;stroke-opacity:1"
       d="m 37.903193,37.111453 c -0.6111,-0.06596 -1.091625,-0.591781 -1.19194,-1.185289 -0.167909,-0.737986 0.08056,-1.548728 0.653906,-2.048302 0.604177,-0.527916 1.521484,-0.762247 2.279278,-0.447971 0.641622,0.310091 0.791073,1.159221 0.576054,1.783315 -0.13534,0.394531 -0.378621,0.799757 -0.808074,0.914589 -0.473668,0.127594 -1.044231,0.239135 -1.477989,-0.05606 -0.426794,-0.381613 -0.333657,-1.035963 -0.147996,-1.515521 0.357291,-0.94565 1.301161,-1.580388 2.270705,-1.760358 1.168123,-0.214338 2.418832,0.586229 2.744828,1.72249 0.190254,0.504794 0.01216,1.085558 -0.389407,1.434927 -0.343893,0.315548 -0.712619,0.611016 -0.995621,0.985431 0.271424,0.189075 0.180105,0.624879 0.136726,0.926466 -0.05352,0.378092 -0.314065,0.744278 -0.720432,0.772219 -0.78884,0.175707 -1.609808,0.03437 -2.366158,-0.213554 -0.633002,-0.283603 -1.214444,-0.671881 -1.715337,-1.152062 -0.29797,-0.264678 -0.422121,-0.663482 -0.563271,-1.023705 -0.0268,-0.386721 -0.09291,-0.851199 0.183056,-1.166494 0.360617,-0.420804 1.034519,-0.345724 1.436307,-0.02347 0.938727,0.707757 1.281268,1.966198 2.280266,2.610925 0.429484,0.301324 1.032854,0.09628 1.294103,-0.32899 0.447169,-0.730728 0.571831,-1.601538 0.698955,-2.435028 0.108618,-0.794734 0.118819,-1.617718 -0.104075,-2.393767 -0.17942,-0.30353 -0.503776,-0.535615 -0.86295,-0.55397 -0.768866,-0.156963 -1.561757,0.210405 -2.099555,0.746737 -0.415805,0.462298 -0.780817,1.085457 -0.677759,1.72929 0.17501,0.657793 0.841516,1.000807 1.415368,1.25967 0.587154,0.280797 1.276298,0.324593 1.809776,0.71548 0.318013,0.237031 0.472366,0.761258 0.146183,1.057573 -0.430944,0.431619 -1.102998,0.383301 -1.659534,0.311161 -0.86065,-0.137322 -1.686385,-0.437712 -2.494744,-0.754822 -0.470094,-0.100652 -0.513005,-0.669257 -0.115817,-0.900684 0.639378,-0.60932 1.347622,-1.218588 2.218843,-1.451478 0.952341,-0.241252 1.912804,0.171008 2.722628,0.645105 0.299589,0.142308 0.781986,0.521093 1.041394,0.124082 0.07329,-0.109694 0.127589,-0.230697 0.176804,-0.352683"
       id="path23086" />
    <path
       style="fill:none;stroke:#eecc8a;stroke-width:0.349931;stroke-linecap:round;stroke-linejoin:round;stroke-miterlimit:10;stroke-opacity:1"
       d="m 34.789551,36.88306 c -0.06221,-0.105283 -0.15313,-0.129579 -0.27117,-0.07127"
       id="path23088" />
    <path
       style="fill:none;stroke:#eecc8a;stroke-width:0.349931;stroke-linecap:round;stroke-linejoin:round;stroke-miterlimit:10;stroke-opacity:1"
       d="m 31.522776,37.475906 c -0.05583,0 -0.114849,-0.0146 -0.178654,-0.04212 -0.05902,-0.02592 -0.175461,-0.03562 -0.347731,-0.03077"
       id="path23090" />
    <path
       style="fill:none;stroke:#eecc8a;stroke-width:0.349931;stroke-linecap:round;stroke-linejoin:round;stroke-miterlimit:10;stroke-opacity:1"
       d="m 29.160426,37.658939 c -0.141965,-0.06966 -0.279145,-0.02106 -0.408349,0.144163"
       id="path23092" />
  </g>
</svg>
